<svg xmlns="http://www.w3.org/2000/svg" width="60" height="58.47" viewBox="0 0 60 58.47">
  <path id="Icon_material-camera" data-name="Icon material-camera" d="M25.2,27.85,39.51,3.7A31.692,31.692,0,0,0,33,3,30.437,30.437,0,0,0,14.04,9.578L25.02,28.142Zm36.42-4.385a29.643,29.643,0,0,0-18-18.535L32.64,23.464H61.62Zm.78,2.923H39.93l.87,1.462L55.08,51.968A28.574,28.574,0,0,0,63,32.235,28.869,28.869,0,0,0,62.4,26.388ZM22.62,32.235,10.92,12.5A28.594,28.594,0,0,0,3.6,38.082H26.07l-3.45-5.847ZM4.38,41.005a29.643,29.643,0,0,0,18,18.535L33.36,41.005H4.38Zm33.81,0L26.49,60.768a31.693,31.693,0,0,0,6.51.7,30.437,30.437,0,0,0,18.96-6.578L40.98,36.328l-2.79,4.678Z" transform="translate(-3 -3)" fill="#e57e48"/>
</svg>
