<?xml version="1.0" encoding="utf-8"?>
<svg id="master-artboard" viewBox="0 0 1054.310546875 728.2013549804688" version="1.1" xmlns="http://www.w3.org/2000/svg" x="0px" y="0px" style="enable-background:new 0 0 1400 980;" width="1054.310546875px" height="728.2013549804688px" xmlns:xlink="http://www.w3.org/1999/xlink"><rect id="ee-background" x="0" y="0" width="1054.310546875" height="728.2013549804688" style="fill: rgb(20, 15, 11); fill-opacity: 0; pointer-events: none;"/>

<path d="M 0 0 H 1400 V 980 H 0 V 0 Z" class="st0" style="fill: rgb(64, 64, 65); fill-opacity: 0;" transform="matrix(1, 0, 0, 1, -171.77789688110352, -126.96624755859375)"/>
<g transform="matrix(1, 0, 0, 1, -171.77789688110352, -126.96624755859375)">
	<path d="M 1205.200027 688.400024 A 144.800003 144.800003 0 0 1 1060.400024 833.200027 A 144.800003 144.800003 0 0 1 915.600021 688.400024 A 144.800003 144.800003 0 0 1 1060.400024 543.600021 A 144.800003 144.800003 0 0 1 1205.200027 688.400024 Z" class="st1" style="fill: rgb(229, 126, 72);"/>
	<path d="M 844.800003 688.400024 A 144.800003 144.800003 0 0 1 700 833.200027 A 144.800003 144.800003 0 0 1 555.199997 688.400024 A 144.800003 144.800003 0 0 1 700 543.600021 A 144.800003 144.800003 0 0 1 844.800003 688.400024 Z" class="st2" style="fill: rgb(64, 200, 232);"/>
	<path d="M 484.400009 688.400024 A 144.800003 144.800003 0 0 1 339.600006 833.200027 A 144.800003 144.800003 0 0 1 194.800003 688.400024 A 144.800003 144.800003 0 0 1 339.600006 543.600021 A 144.800003 144.800003 0 0 1 484.400009 688.400024 Z" class="st3" style="fill: rgb(229, 126, 72); fill-opacity: 1;"/>
	<path d="M 1205.200027 291.600006 A 144.800003 144.800003 0 0 1 1060.400024 436.400009 A 144.800003 144.800003 0 0 1 915.600021 291.600006 A 144.800003 144.800003 0 0 1 1060.400024 146.800003 A 144.800003 144.800003 0 0 1 1205.200027 291.600006 Z" class="st3" style="fill: rgb(64, 200, 232);"/>
	<path d="M 844.800003 291.600006 A 144.800003 144.800003 0 0 1 700 436.400009 A 144.800003 144.800003 0 0 1 555.199997 291.600006 A 144.800003 144.800003 0 0 1 700 146.800003 A 144.800003 144.800003 0 0 1 844.800003 291.600006 Z" class="st1" style="fill: rgb(229, 126, 72);"/>
	<path d="M 484.400009 291.600006 A 144.800003 144.800003 0 0 1 339.600006 436.400009 A 144.800003 144.800003 0 0 1 194.800003 291.600006 A 144.800003 144.800003 0 0 1 339.600006 146.800003 A 144.800003 144.800003 0 0 1 484.400009 291.600006 Z" class="st2" style="fill: rgb(64, 200, 232);"/>
	
	<g>
		<defs>
			<path d="M 844.800003 688.400024 A 144.800003 144.800003 0 0 1 700 833.200027 A 144.800003 144.800003 0 0 1 555.199997 688.400024 A 144.800003 144.800003 0 0 1 700 543.600021 A 144.800003 144.800003 0 0 1 844.800003 688.400024 Z" id="SVGID_3_"/>
		</defs>
		<clipPath id="SVGID_4_">
			<use style="overflow:visible;" xlink:href="#SVGID_3_"/>
		</clipPath>
		
	<path d="M 775.9395141601562 755.6676025390625" style="fill: rgb(229, 126, 72); fill-opacity: 0.23; stroke: rgb(0, 0, 0); stroke-opacity: 1; stroke-width: 0; paint-order: fill;"/></g>
	<g>
		<defs>
			<path d="M 484.400009 688.400024 A 144.800003 144.800003 0 0 1 339.600006 833.200027 A 144.800003 144.800003 0 0 1 194.800003 688.400024 A 144.800003 144.800003 0 0 1 339.600006 543.600021 A 144.800003 144.800003 0 0 1 484.400009 688.400024 Z" id="SVGID_5_"/>
		</defs>
		<clipPath id="SVGID_6_">
			<use style="overflow:visible;" xlink:href="#SVGID_5_"/>
		</clipPath>
		<path class="st8" d="M578.2,911.8c-0.2-0.2-0.4-0.4-0.6-0.6c-0.2-0.2-0.4-0.4-0.6-0.6c-0.2-0.2-0.4-0.4-0.6-0.6&#10;&#9;&#9;&#9;c-0.2-0.2-0.4-0.4-0.6-0.6c-0.2-0.2-0.4-0.4-0.6-0.6c-0.2-0.2-0.4-0.4-0.6-0.6c-0.2-0.2-0.4-0.4-0.6-0.6c-0.2-0.2-0.4-0.4-0.6-0.6&#10;&#9;&#9;&#9;c-0.2-0.2-0.4-0.4-0.6-0.6c-0.2-0.2-0.4-0.4-0.6-0.6c-0.2-0.2-0.4-0.4-0.6-0.6c-0.2-0.2-0.4-0.4-0.6-0.6c-0.2-0.2-0.4-0.4-0.6-0.6&#10;&#9;&#9;&#9;c-0.2-0.2-0.4-0.4-0.6-0.6c-0.2-0.2-0.4-0.4-0.6-0.6c-0.2-0.2-0.4-0.4-0.6-0.6c-0.2-0.2-0.4-0.4-0.6-0.6c-0.2-0.2-0.4-0.4-0.6-0.6&#10;&#9;&#9;&#9;c-0.2-0.2-0.4-0.4-0.6-0.6c-0.2-0.2-0.4-0.4-0.6-0.6c-0.2-0.2-0.4-0.4-0.6-0.6c-0.2-0.2-0.4-0.4-0.6-0.6c-0.2-0.2-0.4-0.4-0.6-0.6&#10;&#9;&#9;&#9;c-0.2-0.2-0.4-0.4-0.6-0.6c-0.2-0.2-0.4-0.4-0.6-0.6c-0.2-0.2-0.4-0.4-0.6-0.6c-0.2-0.2-0.4-0.4-0.6-0.6c-0.2-0.2-0.4-0.4-0.6-0.6&#10;&#9;&#9;&#9;c-0.2-0.2-0.4-0.4-0.6-0.6c-0.2-0.2-0.4-0.4-0.6-0.6c-0.1-0.2-0.3-0.3-0.4-0.5v-18h4.2c0.7,0,1.3-0.6,1.3-1.3v-1.8&#10;&#9;&#9;&#9;c0-0.5-0.3-1-0.7-1.2c-0.1-0.3-0.3-0.5-0.6-0.6c0,0,0,0,0,0c1.8-0.2,3.1-1.7,3.1-3.5v-80.6c0-1.1-0.5-2.1-1.4-2.8&#10;&#9;&#9;&#9;c-0.2-0.2-0.4-0.4-0.6-0.6c-0.2-0.2-0.4-0.4-0.6-0.6c-0.2-0.2-0.4-0.4-0.6-0.6c-0.2-0.2-0.4-0.4-0.6-0.6c-0.2-0.2-0.4-0.4-0.6-0.6&#10;&#9;&#9;&#9;c-0.2-0.2-0.4-0.4-0.6-0.6c-0.2-0.2-0.4-0.4-0.6-0.6c-0.2-0.2-0.4-0.4-0.6-0.6c-0.2-0.2-0.4-0.4-0.6-0.6c-0.2-0.2-0.4-0.4-0.6-0.6&#10;&#9;&#9;&#9;c-0.2-0.2-0.4-0.4-0.6-0.6c-0.2-0.2-0.4-0.4-0.6-0.6c-0.2-0.2-0.4-0.4-0.6-0.6c-0.2-0.2-0.4-0.4-0.6-0.6c-0.2-0.2-0.4-0.4-0.6-0.6&#10;&#9;&#9;&#9;c-0.2-0.2-0.4-0.4-0.6-0.6c-0.2-0.2-0.4-0.4-0.6-0.6c-0.2-0.2-0.4-0.4-0.6-0.6c-0.2-0.2-0.4-0.4-0.6-0.6c-0.2-0.2-0.4-0.4-0.6-0.6&#10;&#9;&#9;&#9;c-0.2-0.2-0.4-0.4-0.6-0.6c-0.2-0.2-0.4-0.4-0.6-0.6c-0.2-0.2-0.4-0.4-0.6-0.6c-0.2-0.2-0.4-0.4-0.6-0.6c-0.2-0.2-0.4-0.4-0.6-0.6&#10;&#9;&#9;&#9;c-0.2-0.2-0.4-0.4-0.6-0.6c-0.2-0.2-0.4-0.4-0.6-0.6c-0.2-0.2-0.4-0.4-0.6-0.6c-0.2-0.2-0.4-0.4-0.6-0.6c-0.2-0.2-0.4-0.4-0.6-0.6&#10;&#9;&#9;&#9;c-0.2-0.2-0.4-0.4-0.6-0.6c-0.2-0.2-0.4-0.4-0.6-0.6c-0.2-0.2-0.4-0.4-0.6-0.6c-0.2-0.2-0.4-0.4-0.6-0.6c-0.2-0.2-0.4-0.4-0.6-0.6&#10;&#9;&#9;&#9;c-0.2-0.2-0.4-0.4-0.6-0.6c-0.2-0.2-0.4-0.4-0.6-0.6c-0.2-0.2-0.4-0.4-0.6-0.6c-0.2-0.2-0.4-0.4-0.6-0.6c-0.2-0.2-0.4-0.4-0.6-0.6&#10;&#9;&#9;&#9;c-0.2-0.2-0.4-0.4-0.6-0.6c-0.2-0.2-0.4-0.4-0.6-0.6c-0.2-0.2-0.4-0.4-0.6-0.6c-0.2-0.2-0.4-0.4-0.6-0.6c-0.2-0.2-0.4-0.4-0.6-0.6&#10;&#9;&#9;&#9;c-0.2-0.2-0.4-0.4-0.6-0.6c-0.2-0.2-0.4-0.4-0.6-0.6c-0.2-0.2-0.4-0.4-0.6-0.6c-0.2-0.2-0.4-0.4-0.6-0.6c-0.2-0.2-0.4-0.4-0.6-0.6&#10;&#9;&#9;&#9;c-0.2-0.2-0.4-0.4-0.6-0.6c-0.2-0.2-0.4-0.4-0.6-0.6c-0.2-0.2-0.4-0.4-0.6-0.6c-0.2-0.2-0.4-0.4-0.6-0.6c-0.2-0.2-0.4-0.4-0.6-0.6&#10;&#9;&#9;&#9;c-0.2-0.2-0.4-0.4-0.6-0.6c-0.2-0.2-0.4-0.4-0.6-0.6c-0.2-0.2-0.4-0.4-0.6-0.6c-0.2-0.2-0.4-0.4-0.6-0.6c-0.2-0.2-0.4-0.4-0.6-0.6&#10;&#9;&#9;&#9;c-0.2-0.2-0.4-0.4-0.6-0.6c-0.2-0.2-0.4-0.4-0.6-0.6c-0.2-0.2-0.4-0.4-0.6-0.6c-0.2-0.2-0.4-0.4-0.6-0.6c-0.2-0.2-0.4-0.4-0.6-0.6&#10;&#9;&#9;&#9;c-0.2-0.2-0.4-0.4-0.6-0.6c-0.2-0.2-0.4-0.4-0.6-0.6c-0.2-0.2-0.4-0.4-0.6-0.6c-0.2-0.2-0.4-0.4-0.6-0.6c-0.2-0.2-0.4-0.4-0.6-0.6&#10;&#9;&#9;&#9;c-0.2-0.2-0.4-0.4-0.6-0.6c-0.2-0.2-0.4-0.4-0.6-0.6c-0.2-0.2-0.4-0.4-0.6-0.6c-0.2-0.2-0.4-0.4-0.6-0.6c-0.2-0.2-0.4-0.4-0.6-0.6&#10;&#9;&#9;&#9;c-0.2-0.2-0.4-0.4-0.6-0.6c-0.2-0.2-0.4-0.4-0.6-0.6c-0.2-0.2-0.4-0.4-0.6-0.6c-0.2-0.2-0.4-0.4-0.6-0.6c-0.2-0.2-0.4-0.4-0.6-0.6&#10;&#9;&#9;&#9;c-0.2-0.2-0.4-0.4-0.6-0.6c-0.2-0.2-0.4-0.4-0.6-0.6c-0.2-0.2-0.4-0.4-0.6-0.6c-0.2-0.2-0.4-0.4-0.6-0.6c-0.2-0.2-0.4-0.4-0.6-0.6&#10;&#9;&#9;&#9;c-0.2-0.2-0.4-0.4-0.6-0.6c-0.2-0.2-0.4-0.4-0.6-0.6c-0.2-0.2-0.4-0.4-0.6-0.6c-0.2-0.2-0.4-0.4-0.6-0.6c-0.2-0.2-0.4-0.4-0.6-0.6&#10;&#9;&#9;&#9;c-0.2-0.2-0.4-0.4-0.6-0.6c-0.2-0.2-0.4-0.4-0.6-0.6c-0.2-0.2-0.4-0.4-0.6-0.6c-0.2-0.2-0.4-0.4-0.6-0.6c-0.2-0.2-0.4-0.4-0.6-0.6&#10;&#9;&#9;&#9;c-0.2-0.2-0.4-0.4-0.6-0.6c-0.2-0.2-0.4-0.4-0.6-0.6c-0.2-0.2-0.4-0.4-0.6-0.6c-0.2-0.2-0.4-0.4-0.6-0.6c-0.2-0.2-0.4-0.4-0.6-0.6&#10;&#9;&#9;&#9;c-0.2-0.2-0.4-0.4-0.6-0.6c-0.2-0.2-0.4-0.4-0.6-0.6c-0.2-0.2-0.4-0.4-0.6-0.6c-0.2-0.2-0.4-0.4-0.6-0.6c-0.2-0.2-0.4-0.4-0.6-0.6&#10;&#9;&#9;&#9;c-0.2-0.2-0.4-0.4-0.6-0.6c-0.2-0.2-0.4-0.4-0.6-0.6c-0.2-0.2-0.4-0.4-0.6-0.6c-0.2-0.2-0.4-0.4-0.6-0.6c-0.2-0.2-0.4-0.4-0.6-0.6&#10;&#9;&#9;&#9;c-0.2-0.2-0.4-0.4-0.6-0.6c-0.2-0.2-0.4-0.4-0.6-0.6c-0.2-0.2-0.4-0.4-0.6-0.6c-0.2-0.2-0.4-0.4-0.6-0.6c-0.2-0.2-0.4-0.4-0.6-0.6&#10;&#9;&#9;&#9;c-0.2-0.2-0.4-0.4-0.6-0.6c-0.2-0.2-0.4-0.4-0.6-0.6c-0.2-0.2-0.4-0.4-0.6-0.6c-0.2-0.2-0.4-0.4-0.6-0.6c-0.2-0.2-0.4-0.4-0.6-0.6&#10;&#9;&#9;&#9;c-0.2-0.2-0.4-0.4-0.6-0.6c-0.2-0.2-0.4-0.4-0.6-0.6c-0.2-0.2-0.4-0.4-0.6-0.6c-0.2-0.2-0.4-0.4-0.6-0.6c-0.2-0.2-0.4-0.4-0.6-0.6&#10;&#9;&#9;&#9;c-0.2-0.2-0.4-0.4-0.6-0.6c-0.2-0.2-0.4-0.4-0.6-0.6c-0.2-0.2-0.4-0.4-0.6-0.6c-0.2-0.2-0.4-0.4-0.6-0.6c-0.2-0.2-0.4-0.4-0.6-0.6&#10;&#9;&#9;&#9;c-0.2-0.2-0.4-0.4-0.6-0.6c-0.2-0.2-0.4-0.4-0.6-0.6c-0.2-0.2-0.4-0.4-0.6-0.6c-0.2-0.2-0.4-0.4-0.6-0.6c-0.2-0.2-0.4-0.4-0.6-0.6&#10;&#9;&#9;&#9;c-0.2-0.2-0.4-0.4-0.6-0.6c-0.2-0.2-0.4-0.4-0.6-0.6c-0.2-0.2-0.4-0.4-0.6-0.6c-0.2-0.2-0.4-0.4-0.6-0.6c-0.2-0.2-0.4-0.4-0.6-0.6&#10;&#9;&#9;&#9;c-0.2-0.2-0.4-0.4-0.6-0.6c-0.2-0.2-0.4-0.4-0.6-0.6c-0.2-0.2-0.4-0.4-0.6-0.6c-0.2-0.2-0.4-0.4-0.6-0.6c-0.2-0.2-0.4-0.4-0.6-0.6&#10;&#9;&#9;&#9;c-0.2-0.2-0.4-0.4-0.6-0.6c-0.2-0.2-0.4-0.4-0.6-0.6c-0.2-0.2-0.4-0.4-0.6-0.6c-0.2-0.2-0.4-0.4-0.6-0.6c-0.2-0.2-0.4-0.4-0.6-0.6&#10;&#9;&#9;&#9;c-0.2-0.2-0.4-0.4-0.6-0.6c-0.2-0.2-0.4-0.4-0.6-0.6c-0.2-0.2-0.4-0.4-0.6-0.6c-0.2-0.2-0.4-0.4-0.6-0.6c-0.2-0.2-0.4-0.4-0.6-0.6&#10;&#9;&#9;&#9;c-0.2-0.2-0.4-0.4-0.6-0.6c-0.2-0.2-0.4-0.4-0.6-0.6c-0.2-0.2-0.4-0.4-0.6-0.6c-0.2-0.2-0.4-0.4-0.6-0.6c-0.2-0.2-0.4-0.4-0.6-0.6&#10;&#9;&#9;&#9;c-0.2-0.2-0.4-0.4-0.6-0.6c-0.2-0.2-0.4-0.4-0.6-0.6c-0.2-0.2-0.4-0.4-0.6-0.6c-0.2-0.2-0.4-0.4-0.6-0.6c-0.2-0.2-0.4-0.4-0.6-0.6&#10;&#9;&#9;&#9;c-0.2-0.2-0.4-0.4-0.6-0.6c-0.2-0.2-0.4-0.4-0.6-0.6c-0.2-0.2-0.4-0.4-0.6-0.6c-0.2-0.2-0.4-0.4-0.6-0.6c-0.2-0.2-0.4-0.4-0.6-0.6&#10;&#9;&#9;&#9;c-0.2-0.2-0.4-0.4-0.6-0.6c-0.2-0.2-0.4-0.4-0.6-0.6c-0.2-0.2-0.4-0.4-0.6-0.6c-0.2-0.2-0.4-0.4-0.6-0.6c-0.2-0.2-0.4-0.4-0.6-0.6&#10;&#9;&#9;&#9;c-0.2-0.2-0.4-0.4-0.6-0.6c-0.2-0.2-0.4-0.4-0.6-0.6c-0.2-0.2-0.4-0.4-0.6-0.6c-0.2-0.2-0.4-0.4-0.6-0.6c-0.2-0.2-0.4-0.4-0.6-0.6&#10;&#9;&#9;&#9;c-0.2-0.2-0.4-0.4-0.6-0.6c-0.2-0.2-0.4-0.4-0.6-0.6c-0.2-0.2-0.4-0.4-0.6-0.6c-0.2-0.2-0.4-0.4-0.6-0.6c-0.2-0.2-0.4-0.4-0.6-0.6&#10;&#9;&#9;&#9;c-0.2-0.2-0.4-0.4-0.6-0.6c-0.2-0.2-0.4-0.4-0.6-0.6c-0.2-0.2-0.4-0.4-0.6-0.6c-0.2-0.2-0.4-0.4-0.6-0.6c-0.2-0.2-0.4-0.4-0.6-0.6&#10;&#9;&#9;&#9;c-0.2-0.2-0.4-0.4-0.6-0.6c-0.2-0.2-0.4-0.4-0.6-0.6c-0.2-0.2-0.4-0.4-0.6-0.6c-0.2-0.2-0.4-0.4-0.6-0.6c-0.2-0.2-0.4-0.4-0.6-0.6&#10;&#9;&#9;&#9;c-0.2-0.2-0.4-0.4-0.6-0.6c-0.2-0.2-0.4-0.4-0.6-0.6c-0.2-0.2-0.4-0.4-0.6-0.6c-0.2-0.2-0.4-0.4-0.6-0.6c-0.2-0.2-0.4-0.4-0.6-0.6&#10;&#9;&#9;&#9;c-0.2-0.2-0.4-0.4-0.6-0.6c-0.2-0.2-0.4-0.4-0.6-0.6c-0.2-0.2-0.4-0.4-0.6-0.6c-0.2-0.2-0.4-0.4-0.6-0.6c-0.2-0.2-0.4-0.4-0.6-0.6&#10;&#9;&#9;&#9;c-0.2-0.2-0.4-0.4-0.6-0.6c-0.2-0.2-0.4-0.4-0.6-0.6c-0.2-0.2-0.4-0.4-0.6-0.6c-0.2-0.2-0.4-0.4-0.6-0.6c-0.2-0.2-0.4-0.4-0.6-0.6&#10;&#9;&#9;&#9;c-0.2-0.2-0.4-0.4-0.6-0.6c-0.2-0.2-0.4-0.4-0.6-0.6c-0.2-0.2-0.4-0.4-0.6-0.6c-0.2-0.2-0.4-0.4-0.6-0.6c-0.2-0.2-0.4-0.4-0.6-0.6&#10;&#9;&#9;&#9;c-0.2-0.2-0.4-0.4-0.6-0.6c-0.2-0.2-0.4-0.4-0.6-0.6c-0.2-0.2-0.4-0.4-0.6-0.6c-0.2-0.2-0.4-0.4-0.6-0.6c-0.2-0.2-0.4-0.4-0.6-0.6&#10;&#9;&#9;&#9;c-0.2-0.2-0.4-0.4-0.6-0.6c-0.2-0.2-0.4-0.4-0.6-0.6c-0.2-0.2-0.4-0.4-0.6-0.6c-0.2-0.2-0.4-0.4-0.6-0.6c-0.2-0.2-0.4-0.4-0.6-0.6&#10;&#9;&#9;&#9;c-0.2-0.2-0.4-0.4-0.6-0.6c-0.2-0.2-0.4-0.4-0.6-0.6c-0.2-0.2-0.4-0.4-0.6-0.6c-0.2-0.2-0.4-0.4-0.6-0.6c-0.2-0.2-0.4-0.4-0.6-0.6&#10;&#9;&#9;&#9;c-0.2-0.2-0.4-0.4-0.6-0.6c-0.2-0.2-0.4-0.4-0.6-0.6c-0.2-0.2-0.4-0.4-0.6-0.6c-0.2-0.2-0.4-0.4-0.6-0.6c-0.2-0.2-0.4-0.4-0.6-0.6&#10;&#9;&#9;&#9;c-0.2-0.2-0.4-0.4-0.6-0.6c-0.2-0.2-0.4-0.4-0.6-0.6c-0.2-0.2-0.4-0.4-0.6-0.6c-0.2-0.2-0.4-0.4-0.6-0.6c-0.2-0.2-0.4-0.4-0.6-0.6&#10;&#9;&#9;&#9;c-0.2-0.2-0.4-0.4-0.6-0.6c-0.2-0.2-0.4-0.4-0.6-0.6c-0.2-0.2-0.4-0.4-0.6-0.6c-0.2-0.2-0.4-0.4-0.6-0.6c-0.2-0.2-0.4-0.4-0.6-0.6&#10;&#9;&#9;&#9;c-0.2-0.2-0.4-0.4-0.6-0.6c-0.2-0.2-0.4-0.4-0.6-0.6c-0.2-0.2-0.4-0.4-0.6-0.6c-0.2-0.2-0.4-0.4-0.6-0.6c-0.2-0.2-0.4-0.4-0.6-0.6&#10;&#9;&#9;&#9;c-0.2-0.2-0.4-0.4-0.6-0.6c-0.2-0.2-0.4-0.4-0.6-0.6c-0.2-0.2-0.4-0.4-0.6-0.6c-0.2-0.2-0.4-0.4-0.6-0.6c-0.2-0.2-0.4-0.4-0.6-0.6&#10;&#9;&#9;&#9;c-0.2-0.2-0.4-0.4-0.6-0.6c-0.2-0.2-0.4-0.4-0.6-0.6c-0.2-0.2-0.4-0.4-0.6-0.6c-0.2-0.2-0.4-0.4-0.6-0.6c-0.2-0.2-0.4-0.4-0.6-0.6&#10;&#9;&#9;&#9;c-0.2-0.2-0.4-0.4-0.6-0.6c-0.2-0.2-0.4-0.4-0.6-0.6c-0.2-0.2-0.4-0.4-0.6-0.6c-0.2-0.2-0.4-0.4-0.6-0.6c-0.2-0.2-0.4-0.4-0.6-0.6&#10;&#9;&#9;&#9;c-0.2-0.2-0.4-0.4-0.6-0.6c-0.2-0.2-0.4-0.4-0.6-0.6c-0.2-0.2-0.4-0.4-0.6-0.6c-0.2-0.2-0.4-0.4-0.6-0.6c-0.2-0.2-0.4-0.4-0.6-0.6&#10;&#9;&#9;&#9;c-0.2-0.2-0.4-0.4-0.6-0.6c-0.2-0.2-0.4-0.4-0.6-0.6c-0.2-0.2-0.4-0.4-0.6-0.6c-0.2-0.2-0.4-0.4-0.6-0.6c-0.2-0.2-0.4-0.4-0.6-0.6&#10;&#9;&#9;&#9;c-0.2-0.2-0.4-0.4-0.6-0.6c-0.2-0.2-0.4-0.4-0.6-0.6c-0.2-0.2-0.4-0.4-0.6-0.6c-0.2-0.2-0.4-0.4-0.6-0.6c-0.2-0.2-0.4-0.4-0.6-0.6&#10;&#9;&#9;&#9;c-0.2-0.2-0.4-0.4-0.6-0.6c-0.2-0.2-0.4-0.4-0.6-0.6c-0.2-0.2-0.4-0.4-0.6-0.6c-0.2-0.2-0.4-0.4-0.6-0.6c-0.2-0.2-0.4-0.4-0.6-0.6&#10;&#9;&#9;&#9;c-0.2-0.2-0.4-0.4-0.6-0.6c-0.2-0.2-0.4-0.4-0.6-0.6c-0.2-0.2-0.4-0.4-0.6-0.6c-0.2-0.2-0.4-0.4-0.6-0.6c-0.2-0.2-0.4-0.4-0.6-0.6&#10;&#9;&#9;&#9;c-0.2-0.2-0.4-0.4-0.6-0.6c-0.2-0.2-0.4-0.4-0.6-0.6c-0.2-0.2-0.4-0.4-0.6-0.6c-0.2-0.2-0.4-0.4-0.6-0.6c-0.2-0.2-0.4-0.4-0.6-0.6&#10;&#9;&#9;&#9;c-0.2-0.2-0.4-0.4-0.6-0.6c-0.2-0.2-0.4-0.4-0.6-0.6c-0.2-0.2-0.4-0.4-0.6-0.6c-0.2-0.2-0.4-0.4-0.6-0.6c-0.2-0.2-0.4-0.4-0.6-0.6&#10;&#9;&#9;&#9;c-0.2-0.2-0.4-0.4-0.6-0.6c-0.2-0.2-0.4-0.4-0.6-0.6c-0.2-0.2-0.4-0.4-0.6-0.6c-0.2-0.2-0.4-0.4-0.6-0.6c-0.2-0.2-0.4-0.4-0.6-0.6&#10;&#9;&#9;&#9;c-0.2-0.2-0.4-0.4-0.6-0.6c-0.2-0.2-0.4-0.4-0.6-0.6c-0.2-0.2-0.4-0.4-0.6-0.6c-0.7-0.8-1.7-1.4-2.8-1.4h-15.4&#10;&#9;&#9;&#9;c-2,0-3.6,1.6-3.6,3.6v31.6c0,0-0.1-0.1-0.1-0.1c-0.2-0.2-0.4-0.4-0.6-0.6c-0.2-0.2-0.4-0.4-0.6-0.6c-0.2-0.2-0.4-0.4-0.6-0.6&#10;&#9;&#9;&#9;c-0.2-0.2-0.4-0.4-0.6-0.6c-0.2-0.2-0.4-0.4-0.6-0.6c-0.2-0.2-0.4-0.4-0.6-0.6c-0.2-0.2-0.4-0.4-0.6-0.6c-0.2-0.2-0.4-0.4-0.6-0.6&#10;&#9;&#9;&#9;c-0.2-0.2-0.4-0.4-0.6-0.6c-0.2-0.2-0.4-0.4-0.6-0.6c-0.2-0.2-0.4-0.4-0.6-0.6c-0.2-0.2-0.4-0.4-0.6-0.6c-0.2-0.2-0.4-0.4-0.6-0.6&#10;&#9;&#9;&#9;c-0.2-0.2-0.4-0.4-0.6-0.6c-0.2-0.2-0.4-0.4-0.6-0.6c-0.2-0.2-0.4-0.4-0.6-0.6c-0.2-0.2-0.4-0.4-0.6-0.6c-0.2-0.2-0.4-0.4-0.6-0.6&#10;&#9;&#9;&#9;c-0.2-0.2-0.4-0.4-0.6-0.6c-0.2-0.2-0.4-0.4-0.6-0.6c-0.2-0.2-0.4-0.4-0.6-0.6c-0.2-0.2-0.4-0.4-0.6-0.6c-0.2-0.2-0.4-0.4-0.6-0.6&#10;&#9;&#9;&#9;c-0.2-0.2-0.4-0.4-0.6-0.6c-0.2-0.2-0.4-0.4-0.6-0.6c-0.2-0.2-0.4-0.4-0.6-0.6c-0.2-0.2-0.4-0.4-0.6-0.6c-0.2-0.2-0.4-0.4-0.6-0.6&#10;&#9;&#9;&#9;c-0.2-0.2-0.4-0.4-0.6-0.6c-0.2-0.2-0.4-0.4-0.6-0.6c-0.2-0.2-0.4-0.4-0.6-0.6c-0.2-0.2-0.4-0.4-0.6-0.6c-0.2-0.2-0.4-0.4-0.6-0.6&#10;&#9;&#9;&#9;c-0.2-0.2-0.4-0.4-0.6-0.6c-0.2-0.2-0.4-0.4-0.6-0.6c-0.2-0.2-0.4-0.4-0.6-0.6c-0.2-0.2-0.4-0.4-0.6-0.6c-0.2-0.2-0.4-0.4-0.6-0.6&#10;&#9;&#9;&#9;c-0.2-0.2-0.4-0.4-0.6-0.6c-0.2-0.2-0.4-0.4-0.6-0.6c-0.2-0.2-0.4-0.4-0.6-0.6c-0.2-0.2-0.4-0.4-0.6-0.6c-5.8-6-14-9.7-23-9.7&#10;&#9;&#9;&#9;c-17.7,0-32.1,14.4-32.1,32.1c0,9,3.7,17.1,9.7,22.9c0.2,0.2,0.4,0.4,0.6,0.6c0.2,0.2,0.4,0.4,0.6,0.6c0.2,0.2,0.4,0.4,0.6,0.6&#10;&#9;&#9;&#9;c0.2,0.2,0.4,0.4,0.6,0.6c0.2,0.2,0.4,0.4,0.6,0.6c0.2,0.2,0.4,0.4,0.6,0.6c0.2,0.2,0.4,0.4,0.6,0.6c0.2,0.2,0.4,0.4,0.6,0.6&#10;&#9;&#9;&#9;c0.2,0.2,0.4,0.4,0.6,0.6c0.2,0.2,0.4,0.4,0.6,0.6c0.2,0.2,0.4,0.4,0.6,0.6c0.2,0.2,0.4,0.4,0.6,0.6c0.2,0.2,0.4,0.4,0.6,0.6&#10;&#9;&#9;&#9;c0.2,0.2,0.4,0.4,0.6,0.6c0.2,0.2,0.4,0.4,0.6,0.6c0.2,0.2,0.4,0.4,0.6,0.6c0.2,0.2,0.4,0.4,0.6,0.6c0.2,0.2,0.4,0.4,0.6,0.6&#10;&#9;&#9;&#9;c0.2,0.2,0.4,0.4,0.6,0.6c0.2,0.2,0.4,0.4,0.6,0.6c0.2,0.2,0.4,0.4,0.6,0.6c0.2,0.2,0.4,0.4,0.6,0.6c0.2,0.2,0.4,0.4,0.6,0.6&#10;&#9;&#9;&#9;c0.2,0.2,0.4,0.4,0.6,0.6c0.2,0.2,0.4,0.4,0.6,0.6c0.2,0.2,0.4,0.4,0.6,0.6c0.2,0.2,0.4,0.4,0.6,0.6c0.2,0.2,0.4,0.4,0.6,0.6&#10;&#9;&#9;&#9;c0.2,0.2,0.4,0.4,0.6,0.6c0.2,0.2,0.4,0.4,0.6,0.6c0.1,0.1,0.2,0.2,0.3,0.3v18h-4.2c-0.7,0-1.3,0.6-1.3,1.3v1.8&#10;&#9;&#9;&#9;c0,0.5,0.3,1,0.7,1.2c0.1,0.3,0.3,0.5,0.6,0.6c0,0,0,0,0,0c-1.8,0.2-3.2,1.7-3.2,3.5v80.6c0,1.1,0.5,2.1,1.4,2.8&#10;&#9;&#9;&#9;c0.2,0.2,0.4,0.4,0.6,0.6c0.2,0.2,0.4,0.4,0.6,0.6c0.2,0.2,0.4,0.4,0.6,0.6c0.2,0.2,0.4,0.4,0.6,0.6c0.2,0.2,0.4,0.4,0.6,0.6&#10;&#9;&#9;&#9;c0.2,0.2,0.4,0.4,0.6,0.6c0.2,0.2,0.4,0.4,0.6,0.6c0.2,0.2,0.4,0.4,0.6,0.6c0.2,0.2,0.4,0.4,0.6,0.6c0.2,0.2,0.4,0.4,0.6,0.6&#10;&#9;&#9;&#9;c0.2,0.2,0.4,0.4,0.6,0.6c0.2,0.2,0.4,0.4,0.6,0.6c0.2,0.2,0.4,0.4,0.6,0.6c0.2,0.2,0.4,0.4,0.6,0.6c0.2,0.2,0.4,0.4,0.6,0.6&#10;&#9;&#9;&#9;c0.2,0.2,0.4,0.4,0.6,0.6c0.2,0.2,0.4,0.4,0.6,0.6c0.2,0.2,0.4,0.4,0.6,0.6c0.2,0.2,0.4,0.4,0.6,0.6c0.2,0.2,0.4,0.4,0.6,0.6&#10;&#9;&#9;&#9;c0.2,0.2,0.4,0.4,0.6,0.6c0.2,0.2,0.4,0.4,0.6,0.6c0.2,0.2,0.4,0.4,0.6,0.6c0.2,0.2,0.4,0.4,0.6,0.6c0.2,0.2,0.4,0.4,0.6,0.6&#10;&#9;&#9;&#9;c0.2,0.2,0.4,0.4,0.6,0.6c0.2,0.2,0.4,0.4,0.6,0.6c0.2,0.2,0.4,0.4,0.6,0.6c0.2,0.2,0.4,0.4,0.6,0.6c0.2,0.2,0.4,0.4,0.6,0.6&#10;&#9;&#9;&#9;c0.2,0.2,0.4,0.4,0.6,0.6c0.2,0.2,0.4,0.4,0.6,0.6c0.2,0.2,0.4,0.4,0.6,0.6c0.2,0.2,0.4,0.4,0.6,0.6c0.2,0.2,0.4,0.4,0.6,0.6&#10;&#9;&#9;&#9;c0.2,0.2,0.4,0.4,0.6,0.6c0.2,0.2,0.4,0.4,0.6,0.6c0.2,0.2,0.4,0.4,0.6,0.6c0.2,0.2,0.4,0.4,0.6,0.6c0.2,0.2,0.4,0.4,0.6,0.6&#10;&#9;&#9;&#9;c0.2,0.2,0.4,0.4,0.6,0.6c0.2,0.2,0.4,0.4,0.6,0.6c0.2,0.2,0.4,0.4,0.6,0.6c0.2,0.2,0.4,0.4,0.6,0.6c0.2,0.2,0.4,0.4,0.6,0.6&#10;&#9;&#9;&#9;c0.2,0.2,0.4,0.4,0.6,0.6c0.2,0.2,0.4,0.4,0.6,0.6c0.2,0.2,0.4,0.4,0.6,0.6c0.2,0.2,0.4,0.4,0.6,0.6c0.2,0.2,0.4,0.4,0.6,0.6&#10;&#9;&#9;&#9;c0.2,0.2,0.4,0.4,0.6,0.6c0.2,0.2,0.4,0.4,0.6,0.6c0.2,0.2,0.4,0.4,0.6,0.6c0.2,0.2,0.4,0.4,0.6,0.6c0.2,0.2,0.4,0.4,0.6,0.6&#10;&#9;&#9;&#9;c0.2,0.2,0.4,0.4,0.6,0.6c0.2,0.2,0.4,0.4,0.6,0.6c0.2,0.2,0.4,0.4,0.6,0.6c0.2,0.2,0.4,0.4,0.6,0.6c0.2,0.2,0.4,0.4,0.6,0.6&#10;&#9;&#9;&#9;c0.2,0.2,0.4,0.4,0.6,0.6c0.2,0.2,0.4,0.4,0.6,0.6c0.2,0.2,0.4,0.4,0.6,0.6c0.2,0.2,0.4,0.4,0.6,0.6c0.2,0.2,0.4,0.4,0.6,0.6&#10;&#9;&#9;&#9;c0.2,0.2,0.4,0.4,0.6,0.6c0.2,0.2,0.4,0.4,0.6,0.6c0.2,0.2,0.4,0.4,0.6,0.6c0.2,0.2,0.4,0.4,0.6,0.6c0.2,0.2,0.4,0.4,0.6,0.6&#10;&#9;&#9;&#9;c0.2,0.2,0.4,0.4,0.6,0.6c0.2,0.2,0.4,0.4,0.6,0.6c0.2,0.2,0.4,0.4,0.6,0.6c0.2,0.2,0.4,0.4,0.6,0.6c0.2,0.2,0.4,0.4,0.6,0.6&#10;&#9;&#9;&#9;c0.2,0.2,0.4,0.4,0.6,0.6c0.2,0.2,0.4,0.4,0.6,0.6c0.2,0.2,0.4,0.4,0.6,0.6c0.2,0.2,0.4,0.4,0.6,0.6c0.2,0.2,0.4,0.4,0.6,0.6&#10;&#9;&#9;&#9;c0.2,0.2,0.4,0.4,0.6,0.6c0.2,0.2,0.4,0.4,0.6,0.6c0.2,0.2,0.4,0.4,0.6,0.6c0.2,0.2,0.4,0.4,0.6,0.6c0.2,0.2,0.4,0.4,0.6,0.6&#10;&#9;&#9;&#9;c0.2,0.2,0.4,0.4,0.6,0.6c0.2,0.2,0.4,0.4,0.6,0.6c0.2,0.2,0.4,0.4,0.6,0.6c0.2,0.2,0.4,0.4,0.6,0.6c0.2,0.2,0.4,0.4,0.6,0.6&#10;&#9;&#9;&#9;c0.2,0.2,0.4,0.4,0.6,0.6c0.2,0.2,0.4,0.4,0.6,0.6c0.2,0.2,0.4,0.4,0.6,0.6c0.2,0.2,0.4,0.4,0.6,0.6c0.2,0.2,0.4,0.4,0.6,0.6&#10;&#9;&#9;&#9;c0.2,0.2,0.4,0.4,0.6,0.6c0.2,0.2,0.4,0.4,0.6,0.6c0.2,0.2,0.4,0.4,0.6,0.6c0.2,0.2,0.4,0.4,0.6,0.6c0.2,0.2,0.4,0.4,0.6,0.6&#10;&#9;&#9;&#9;c0.2,0.2,0.4,0.4,0.6,0.6c0.2,0.2,0.4,0.4,0.6,0.6c0.2,0.2,0.4,0.4,0.6,0.6c0.2,0.2,0.4,0.4,0.6,0.6c0.2,0.2,0.4,0.4,0.6,0.6&#10;&#9;&#9;&#9;c0.2,0.2,0.4,0.4,0.6,0.6c0.2,0.2,0.4,0.4,0.6,0.6c0.2,0.2,0.4,0.4,0.6,0.6c0.2,0.2,0.4,0.4,0.6,0.6c0.2,0.2,0.4,0.4,0.6,0.6&#10;&#9;&#9;&#9;c0.2,0.2,0.4,0.4,0.6,0.6c0.2,0.2,0.4,0.4,0.6,0.6c0.2,0.2,0.4,0.4,0.6,0.6c0.2,0.2,0.4,0.4,0.6,0.6c0.2,0.2,0.4,0.4,0.6,0.6&#10;&#9;&#9;&#9;c0.2,0.2,0.4,0.4,0.6,0.6c0.2,0.2,0.4,0.4,0.6,0.6c0.2,0.2,0.4,0.4,0.6,0.6c0.2,0.2,0.4,0.4,0.6,0.6c0.2,0.2,0.4,0.4,0.6,0.6&#10;&#9;&#9;&#9;c0.2,0.2,0.4,0.4,0.6,0.6c0.2,0.2,0.4,0.4,0.6,0.6c0.2,0.2,0.4,0.4,0.6,0.6c0.2,0.2,0.4,0.4,0.6,0.6c0.2,0.2,0.4,0.4,0.6,0.6&#10;&#9;&#9;&#9;c0.2,0.2,0.4,0.4,0.6,0.6c0.2,0.2,0.4,0.4,0.6,0.6c0.2,0.2,0.4,0.4,0.6,0.6c0.2,0.2,0.4,0.4,0.6,0.6c0.2,0.2,0.4,0.4,0.6,0.6&#10;&#9;&#9;&#9;c0.2,0.2,0.4,0.4,0.6,0.6c0.2,0.2,0.4,0.4,0.6,0.6c0.2,0.2,0.4,0.4,0.6,0.6c0.2,0.2,0.4,0.4,0.6,0.6c0.2,0.2,0.4,0.4,0.6,0.6&#10;&#9;&#9;&#9;c0.2,0.2,0.4,0.4,0.6,0.6c0.2,0.2,0.4,0.4,0.6,0.6c0.2,0.2,0.4,0.4,0.6,0.6c0.2,0.2,0.4,0.4,0.6,0.6c0.2,0.2,0.4,0.4,0.6,0.6&#10;&#9;&#9;&#9;c0.2,0.2,0.4,0.4,0.6,0.6c0.2,0.2,0.4,0.4,0.6,0.6c0.2,0.2,0.4,0.4,0.6,0.6c0.2,0.2,0.4,0.4,0.6,0.6c0.2,0.2,0.4,0.4,0.6,0.6&#10;&#9;&#9;&#9;c0.2,0.2,0.4,0.4,0.6,0.6c0.2,0.2,0.4,0.4,0.6,0.6c0.2,0.2,0.4,0.4,0.6,0.6c0.2,0.2,0.4,0.4,0.6,0.6c0.2,0.2,0.4,0.4,0.6,0.6&#10;&#9;&#9;&#9;c0.2,0.2,0.4,0.4,0.6,0.6c0.2,0.2,0.4,0.4,0.6,0.6c0.2,0.2,0.4,0.4,0.6,0.6c0.2,0.2,0.4,0.4,0.6,0.6c0.2,0.2,0.4,0.4,0.6,0.6&#10;&#9;&#9;&#9;c0.2,0.2,0.4,0.4,0.6,0.6c0.2,0.2,0.4,0.4,0.6,0.6c0.2,0.2,0.4,0.4,0.6,0.6c0.2,0.2,0.4,0.4,0.6,0.6c0.2,0.2,0.4,0.4,0.6,0.6&#10;&#9;&#9;&#9;c0.2,0.2,0.4,0.4,0.6,0.6c0.2,0.2,0.4,0.4,0.6,0.6c0.2,0.2,0.4,0.4,0.6,0.6c0.2,0.2,0.4,0.4,0.6,0.6c0.2,0.2,0.4,0.4,0.6,0.6&#10;&#9;&#9;&#9;c0.2,0.2,0.4,0.4,0.6,0.6c0.2,0.2,0.4,0.4,0.6,0.6c0.2,0.2,0.4,0.4,0.6,0.6c0.2,0.2,0.4,0.4,0.6,0.6c0.2,0.2,0.4,0.4,0.6,0.6&#10;&#9;&#9;&#9;c0.2,0.2,0.4,0.4,0.6,0.6c0.2,0.2,0.4,0.4,0.6,0.6c0.2,0.2,0.4,0.4,0.6,0.6c0.2,0.2,0.4,0.4,0.6,0.6c0.2,0.2,0.4,0.4,0.6,0.6&#10;&#9;&#9;&#9;c0.2,0.2,0.4,0.4,0.6,0.6c0.2,0.2,0.4,0.4,0.6,0.6c0.2,0.2,0.4,0.4,0.6,0.6c0.2,0.2,0.4,0.4,0.6,0.6c0.2,0.2,0.4,0.4,0.6,0.6&#10;&#9;&#9;&#9;c0.2,0.2,0.4,0.4,0.6,0.6c0.2,0.2,0.4,0.4,0.6,0.6c0.2,0.2,0.4,0.4,0.6,0.6c0.2,0.2,0.4,0.4,0.6,0.6c0.2,0.2,0.4,0.4,0.6,0.6&#10;&#9;&#9;&#9;c0.2,0.2,0.4,0.4,0.6,0.6c0.2,0.2,0.4,0.4,0.6,0.6c0.2,0.2,0.4,0.4,0.6,0.6c0.2,0.2,0.4,0.4,0.6,0.6c0.2,0.2,0.4,0.4,0.6,0.6&#10;&#9;&#9;&#9;c0.2,0.2,0.4,0.4,0.6,0.6c0.2,0.2,0.4,0.4,0.6,0.6c0.2,0.2,0.4,0.4,0.6,0.6c0.2,0.2,0.4,0.4,0.6,0.6c0.2,0.2,0.4,0.4,0.6,0.6&#10;&#9;&#9;&#9;c0.2,0.2,0.4,0.4,0.6,0.6c0.2,0.2,0.4,0.4,0.6,0.6c0.2,0.2,0.4,0.4,0.6,0.6c0.2,0.2,0.4,0.4,0.6,0.6c0.2,0.2,0.4,0.4,0.6,0.6&#10;&#9;&#9;&#9;c0.2,0.2,0.4,0.4,0.6,0.6c0.2,0.2,0.4,0.4,0.6,0.6c0.2,0.2,0.4,0.4,0.6,0.6c0.2,0.2,0.4,0.4,0.6,0.6c0.2,0.2,0.4,0.4,0.6,0.6&#10;&#9;&#9;&#9;c0.2,0.2,0.4,0.4,0.6,0.6c0.2,0.2,0.4,0.4,0.6,0.6c0.2,0.2,0.4,0.4,0.6,0.6c0.2,0.2,0.4,0.4,0.6,0.6c0.2,0.2,0.4,0.4,0.6,0.6&#10;&#9;&#9;&#9;c0.2,0.2,0.4,0.4,0.6,0.6c0.2,0.2,0.4,0.4,0.6,0.6c0.2,0.2,0.4,0.4,0.6,0.6c0.2,0.2,0.4,0.4,0.6,0.6c0.2,0.2,0.4,0.4,0.6,0.6&#10;&#9;&#9;&#9;c0.2,0.2,0.4,0.4,0.6,0.6c0.2,0.2,0.4,0.4,0.6,0.6c0.2,0.2,0.4,0.4,0.6,0.6c0.2,0.2,0.4,0.4,0.6,0.6c0.2,0.2,0.4,0.4,0.6,0.6&#10;&#9;&#9;&#9;c0.2,0.2,0.4,0.4,0.6,0.6c0.2,0.2,0.4,0.4,0.6,0.6c0.2,0.2,0.4,0.4,0.6,0.6c0.2,0.2,0.4,0.4,0.6,0.6c0.2,0.2,0.4,0.4,0.6,0.6&#10;&#9;&#9;&#9;c0.2,0.2,0.4,0.4,0.6,0.6c0.2,0.2,0.4,0.4,0.6,0.6c0.2,0.2,0.4,0.4,0.6,0.6c0.2,0.2,0.4,0.4,0.6,0.6c0.2,0.2,0.4,0.4,0.6,0.6&#10;&#9;&#9;&#9;c0.2,0.2,0.4,0.4,0.6,0.6c0.2,0.2,0.4,0.4,0.6,0.6c0.2,0.2,0.4,0.4,0.6,0.6c0.2,0.2,0.4,0.4,0.6,0.6c0.2,0.2,0.4,0.4,0.6,0.6&#10;&#9;&#9;&#9;c0.2,0.2,0.4,0.4,0.6,0.6c0.2,0.2,0.4,0.4,0.6,0.6c0.2,0.2,0.4,0.4,0.6,0.6c0.2,0.2,0.4,0.4,0.6,0.6c0.2,0.2,0.4,0.4,0.6,0.6&#10;&#9;&#9;&#9;c0.2,0.2,0.4,0.4,0.6,0.6c0.2,0.2,0.4,0.4,0.6,0.6c0.2,0.2,0.4,0.4,0.6,0.6c0.2,0.2,0.4,0.4,0.6,0.6c0.2,0.2,0.4,0.4,0.6,0.6&#10;&#9;&#9;&#9;c0.2,0.2,0.4,0.4,0.6,0.6c0.2,0.2,0.4,0.4,0.6,0.6c0.2,0.2,0.4,0.4,0.6,0.6c0.2,0.2,0.4,0.4,0.6,0.6c0.2,0.2,0.4,0.4,0.6,0.6&#10;&#9;&#9;&#9;c0.2,0.2,0.4,0.4,0.6,0.6c0.2,0.2,0.4,0.4,0.6,0.6c0.2,0.2,0.4,0.4,0.6,0.6c0.2,0.2,0.4,0.4,0.6,0.6c0.2,0.2,0.4,0.4,0.6,0.6&#10;&#9;&#9;&#9;c0.2,0.2,0.4,0.4,0.6,0.6c0.2,0.2,0.4,0.4,0.6,0.6c0.2,0.2,0.4,0.4,0.6,0.6c0.2,0.2,0.4,0.4,0.6,0.6c0.2,0.2,0.4,0.4,0.6,0.6&#10;&#9;&#9;&#9;c0.2,0.2,0.4,0.4,0.6,0.6c0.2,0.2,0.4,0.4,0.6,0.6c0.2,0.2,0.4,0.4,0.6,0.6c0.2,0.2,0.4,0.4,0.6,0.6c0.2,0.2,0.4,0.4,0.6,0.6&#10;&#9;&#9;&#9;c0.2,0.2,0.4,0.4,0.6,0.6c0.2,0.2,0.4,0.4,0.6,0.6c0.2,0.2,0.4,0.4,0.6,0.6c0.2,0.2,0.4,0.4,0.6,0.6c0.2,0.2,0.4,0.4,0.6,0.6&#10;&#9;&#9;&#9;c0.2,0.2,0.4,0.4,0.6,0.6c0.2,0.2,0.4,0.4,0.6,0.6c0.2,0.2,0.4,0.4,0.6,0.6c0.2,0.2,0.4,0.4,0.6,0.6c0.2,0.2,0.4,0.4,0.6,0.6&#10;&#9;&#9;&#9;c0.2,0.2,0.4,0.4,0.6,0.6c0.2,0.2,0.4,0.4,0.6,0.6c0.2,0.2,0.4,0.4,0.6,0.6c0.2,0.2,0.4,0.4,0.6,0.6c0.2,0.2,0.4,0.4,0.6,0.6&#10;&#9;&#9;&#9;c0.2,0.2,0.4,0.4,0.6,0.6c0.2,0.2,0.4,0.4,0.6,0.6c0.2,0.2,0.4,0.4,0.6,0.6c0.2,0.2,0.4,0.4,0.6,0.6c0.2,0.2,0.4,0.4,0.6,0.6&#10;&#9;&#9;&#9;c0.2,0.2,0.4,0.4,0.6,0.6c0.2,0.2,0.4,0.4,0.6,0.6c0.2,0.2,0.4,0.4,0.6,0.6c0.2,0.2,0.4,0.4,0.6,0.6c0.2,0.2,0.4,0.4,0.6,0.6&#10;&#9;&#9;&#9;c0.2,0.2,0.4,0.4,0.6,0.6c0.2,0.2,0.4,0.4,0.6,0.6c0.2,0.2,0.4,0.4,0.6,0.6c0.2,0.2,0.4,0.4,0.6,0.6c0.2,0.2,0.4,0.4,0.6,0.6&#10;&#9;&#9;&#9;c0.2,0.2,0.4,0.4,0.6,0.6c0.2,0.2,0.4,0.4,0.6,0.6c0.2,0.2,0.4,0.4,0.6,0.6c0.2,0.2,0.4,0.4,0.6,0.6c0.2,0.2,0.4,0.4,0.6,0.6&#10;&#9;&#9;&#9;c0.2,0.2,0.4,0.4,0.6,0.6c0.2,0.2,0.4,0.4,0.6,0.6c0.2,0.2,0.4,0.4,0.6,0.6c0.2,0.2,0.4,0.4,0.6,0.6c0.2,0.2,0.4,0.4,0.6,0.6&#10;&#9;&#9;&#9;c0.2,0.2,0.4,0.4,0.6,0.6c0.2,0.2,0.4,0.4,0.6,0.6c0.2,0.2,0.4,0.4,0.6,0.6c0.7,0.8,1.7,1.4,2.8,1.4h15.4c2,0,3.6-1.6,3.6-3.6&#10;&#9;&#9;&#9;v-31.6c0.1,0.1,0.2,0.2,0.3,0.3c0,0,0.1,0.1,0.1,0.1c0.2,0.2,0.3,0.3,0.5,0.5c0,0,0.1,0.1,0.1,0.1c0.2,0.2,0.3,0.3,0.5,0.5&#10;&#9;&#9;&#9;c0,0,0.1,0.1,0.1,0.1c0.2,0.2,0.3,0.3,0.5,0.5c0,0,0.1,0.1,0.1,0.1c0.2,0.2,0.3,0.3,0.5,0.5c0,0,0.1,0.1,0.1,0.1&#10;&#9;&#9;&#9;c0.2,0.2,0.3,0.3,0.5,0.5c0,0,0.1,0.1,0.1,0.1c0.2,0.2,0.3,0.3,0.5,0.5c0,0,0.1,0.1,0.1,0.1c0.2,0.2,0.3,0.3,0.5,0.5&#10;&#9;&#9;&#9;c0,0,0.1,0.1,0.1,0.1c0.2,0.2,0.3,0.3,0.5,0.5c0,0,0.1,0.1,0.1,0.1c0.2,0.2,0.3,0.3,0.5,0.5c0,0,0.1,0.1,0.1,0.1&#10;&#9;&#9;&#9;c0.2,0.2,0.3,0.3,0.5,0.5c0,0,0.1,0.1,0.1,0.1c0.2,0.2,0.3,0.3,0.5,0.5c0,0,0.1,0.1,0.1,0.1c0.2,0.2,0.3,0.3,0.5,0.5&#10;&#9;&#9;&#9;c0,0,0.1,0.1,0.1,0.1c0.2,0.2,0.3,0.3,0.5,0.5c0,0,0.1,0.1,0.1,0.1c0.2,0.2,0.3,0.3,0.5,0.5c0,0,0.1,0.1,0.1,0.1&#10;&#9;&#9;&#9;c0.2,0.2,0.3,0.3,0.5,0.5c0,0,0.1,0.1,0.1,0.1c0.2,0.2,0.3,0.3,0.5,0.5c0,0,0.1,0.1,0.1,0.1c0.2,0.2,0.3,0.3,0.5,0.5&#10;&#9;&#9;&#9;c0,0,0.1,0.1,0.1,0.1c0.2,0.2,0.3,0.3,0.5,0.5c0,0,0.1,0.1,0.1,0.1c0.2,0.2,0.3,0.3,0.5,0.5c0,0,0.1,0.1,0.1,0.1&#10;&#9;&#9;&#9;c0.2,0.2,0.3,0.3,0.5,0.5c0,0,0.1,0.1,0.1,0.1c0.2,0.2,0.3,0.3,0.5,0.5c0,0,0.1,0.1,0.1,0.1c0.2,0.2,0.3,0.3,0.5,0.5&#10;&#9;&#9;&#9;c0,0,0.1,0.1,0.1,0.1c0.2,0.2,0.3,0.3,0.5,0.5c0,0,0.1,0.1,0.1,0.1c0.2,0.2,0.3,0.3,0.5,0.5c0,0,0.1,0.1,0.1,0.1&#10;&#9;&#9;&#9;c0.2,0.2,0.3,0.3,0.5,0.5c0,0,0.1,0.1,0.1,0.1c0.2,0.2,0.3,0.3,0.5,0.5c0,0,0.1,0.1,0.1,0.1c0.2,0.2,0.3,0.3,0.5,0.5&#10;&#9;&#9;&#9;c0,0,0.1,0.1,0.1,0.1c0.2,0.2,0.3,0.3,0.5,0.5c0,0,0.1,0.1,0.1,0.1c0.2,0.2,0.3,0.3,0.5,0.5c0,0,0.1,0.1,0.1,0.1&#10;&#9;&#9;&#9;c0.2,0.2,0.3,0.3,0.5,0.5c0,0,0.1,0.1,0.1,0.1c0.2,0.2,0.3,0.3,0.5,0.5c0,0,0.1,0.1,0.1,0.1c0.2,0.2,0.3,0.3,0.5,0.5&#10;&#9;&#9;&#9;c0,0,0.1,0.1,0.1,0.1c0.2,0.2,0.3,0.3,0.5,0.5c0,0,0.1,0.1,0.1,0.1c0.2,0.2,0.3,0.3,0.5,0.5c0,0,0.1,0.1,0.1,0.1&#10;&#9;&#9;&#9;c0.2,0.2,0.3,0.3,0.5,0.5c0,0,0.1,0.1,0.1,0.1c0.2,0.2,0.3,0.3,0.5,0.5c0,0,0.1,0.1,0.1,0.1c0.2,0.2,0.3,0.3,0.5,0.5&#10;&#9;&#9;&#9;c0,0,0.1,0.1,0.1,0.1c0.2,0.2,0.3,0.3,0.5,0.5c0,0,0.1,0.1,0.1,0.1c0.2,0.2,0.3,0.3,0.5,0.5c0,0,0.1,0.1,0.1,0.1&#10;&#9;&#9;&#9;c0.2,0.2,0.3,0.3,0.5,0.5c0,0,0.1,0.1,0.1,0.1c0.2,0.2,0.3,0.3,0.5,0.5c0,0,0.1,0.1,0.1,0.1c0.2,0.2,0.3,0.3,0.5,0.5&#10;&#9;&#9;&#9;c0,0,0.1,0.1,0.1,0.1c6.1,6.1,14.1,9.4,22.7,9.4c17.7,0,32.1-14.4,32.1-32.1C587.8,925.7,584.1,917.7,578.2,911.8z" style="clip-path: url('#SVGID_6_'); fill: rgb(64, 200, 232); fill-opacity: 0;"/>
	<path d="M 427.0491943359375 765.2700805664062" style="fill: rgb(64, 200, 232); fill-opacity: 1; stroke: rgb(0, 0, 0); stroke-opacity: 1; stroke-width: 0; paint-order: fill;"/><path d="M 63.2216796875 705.521240234375" style="fill: rgb(64, 200, 232); fill-opacity: 1; stroke: rgb(0, 0, 0); stroke-opacity: 1; stroke-width: 0; paint-order: fill;"/><path d="M 63.2216796875 705.521240234375" style="fill: rgb(64, 200, 232); fill-opacity: 1; stroke: rgb(0, 0, 0); stroke-opacity: 1; stroke-width: 0; paint-order: fill;"/><path d="M 414.2458801269531 683.115478515625 L 414.2458801269531 683.115478515625" style="fill: rgb(64, 200, 232); fill-opacity: 0.68; stroke: rgb(0, 0, 0); stroke-opacity: 1; stroke-width: 0; paint-order: fill;"/><path d="M 56.82002258300781 692.7179565429688" style="fill: rgb(64, 200, 232); fill-opacity: 0.68; stroke: rgb(0, 0, 0); stroke-opacity: 1; stroke-width: 0; paint-order: fill;"/><path d="M 425.9822692871094 689.51708984375" style="fill: rgb(64, 200, 232); fill-opacity: 0; stroke: rgb(0, 0, 0); stroke-opacity: 1; stroke-width: 0; paint-order: fill;"/></g>
	
	<g>
		<defs>
			<path d="M 844.800003 291.600006 A 144.800003 144.800003 0 0 1 700 436.400009 A 144.800003 144.800003 0 0 1 555.199997 291.600006 A 144.800003 144.800003 0 0 1 700 146.800003 A 144.800003 144.800003 0 0 1 844.800003 291.600006 Z" id="SVGID_9_"/>
		</defs>
		<clipPath id="SVGID_10_">
			<use style="overflow:visible;" xlink:href="#SVGID_9_"/>
		</clipPath>
		<g class="st11" style="clip-path: url('#SVGID_10_');">
			<path class="st12" d="M729.9,249.2c2.3,0,4.6,0,6.8,0c0.5,1.2,1.7,0.8,2.6,0.9c7.6,1.1,14.1,4.3,19.5,9.7&#10;&#9;&#9;&#9;&#9;c1.7,1.7,3.5,3.3,5.1,5.1c1.8,2,2.8,2.6,4.3-0.6c4.3-8.9,11.9-13.1,21.6-13.5c8.8-0.3,16.2,2.8,22.5,9.2&#10;&#9;&#9;&#9;&#9;c59.8,59.9,119.6,119.8,179.6,179.6c4.7,4.7,8.6,9.7,10.3,16.1c0,4,0,8,0,12c-2.5,0.2-4.9,0.8-7.6,2.2c2.7,2.6,5.2,4.9,7.6,7.2&#10;&#9;&#9;&#9;&#9;c0,5.4,0,10.8,0,16.2c-2.2,4.9-4.8,9.5-9.7,12.4c-10,6.1-29.9,8-39.7-3.6c-0.4-0.5-0.9-1.1-1.7-0.6c-1.6,12.2-5.5,16.4-17.6,18.8&#10;&#9;&#9;&#9;&#9;c-1.3,0.3-2.9-0.4-3.8,1.1c-7.1,0-14.2,0-21.3,0c-0.3-0.8-1-0.8-1.7-0.9c-7.4-0.9-13.5-4.1-18.4-9.7c-0.7-0.8-1.3-1.9-2.7-1.8&#10;&#9;&#9;&#9;&#9;c-2.7,6.4-7.9,9.3-14.3,10.9c-2.1,0.5-4.5,0.1-6.4,1.6c-6.8,0-13.7,0-20.5,0c-0.2-0.2-0.3-0.6-0.5-0.6&#10;&#9;&#9;&#9;&#9;c-10-0.7-17.1-6.2-23.3-13.4c-1.3-1.5-2.2-2.3-4.5-1c-12.4,7.3-29.8,5-40.2-5.4c-61.1-61-122.1-122-183.1-183&#10;&#9;&#9;&#9;&#9;c-3.3-3.3-5.7-7.1-6.5-11.7c0-4,0-8-0.2-11.9c-0.2-3.3,1.1-3.8,4-2.9c2.2,0.7,4.6,1.7,7.5,1.4c-2.3-2.4-4.4-4.3-6.2-6.5&#10;&#9;&#9;&#9;&#9;c-1.7-2-4.4-3.4-5.2-6.1c-3.4-11.7,3.3-24.4,14.9-28c10.1-3.2,19.7-2.1,27.9,5.2c2.7,2.4,5.2,4.9,7.6,7.4&#10;&#9;&#9;&#9;&#9;c1.5,1.5,2.2,2.1,3.5-0.4c4.1-7.8,10.9-12,19.3-14.1c1.8-0.4,4,0.2,5.5-1.4c2.3,0,4.6,0,6.8,0c0.2,0.6,0.7,0.8,1.3,0.8&#10;&#9;&#9;&#9;&#9;c7.7,0.7,14.1,4.2,19.5,9.5c3.4,3.3,6.5,7,10.1,10.9c5.5-12.4,14.1-19.1,26.6-20.6C729.6,249.8,729.7,249.4,729.9,249.2z" style="fill: rgb(229, 126, 72);"/>
		<path d="M 728.9940185546875 385.4383850097656 L 124.03742218017578 257.4052429199219" style="fill: rgb(229, 126, 72); fill-opacity: 1; stroke: rgb(0, 0, 0); stroke-opacity: 1; stroke-width: 0; paint-order: fill;"/></g>
	</g>
	<g>
		<defs>
			<path d="M 484.400009 291.600006 A 144.800003 144.800003 0 0 1 339.600006 436.400009 A 144.800003 144.800003 0 0 1 194.800003 291.600006 A 144.800003 144.800003 0 0 1 339.600006 146.800003 A 144.800003 144.800003 0 0 1 484.400009 291.600006 Z" id="SVGID_11_"/>
		</defs>
		<clipPath id="SVGID_12_">
			<use style="overflow:visible;" xlink:href="#SVGID_11_"/>
		</clipPath>
		<g class="st13" style="clip-path: url('#SVGID_12_');">
			<path class="st14" d="M270.5,249.2c0-1.4,0-2.8,0-4.3c1.5-0.8,0.7-2.3,0.9-3.5c2.5-17.4,10.7-30,28.5-34.9&#10;&#9;&#9;&#9;&#9;c0.5-0.1,0.9-0.6,1.3-0.9c5.1,0,10.2,0,15.4,0c7.4,2.2,14.6,5.1,21.4,8.7c1.6,0.9,3.3,0.8,4.9,0c6.9-3.6,14-6.5,21.5-8.7&#10;&#9;&#9;&#9;&#9;c4.8,0,9.7,0,14.5,0c11.8,2.7,19.8,10.7,28,18.9c57.7,57.9,115.4,115.8,173.5,173.4c14.4,14.2,18,30.6,13.8,49.5&#10;&#9;&#9;&#9;&#9;c-2.2,9.9-7.2,18.5-12.6,26.9c-3,4.6-4.2,9.4-3.4,15c1.8,12.1,3.7,24.2,2.1,36.5c-2.2,16.8-5.2,33.1-23.9,40.2&#10;&#9;&#9;&#9;&#9;c-1.1,0-2.3,0-3.4,0c-12.6-12.3-25.1-24.6-37.9-37.2c-0.5,4.1-0.6,7.6-1.4,10.9c-2.3,10.1-4.7,20.2-14.5,26.3c-0.9,0-1.7,0-2.6,0&#10;&#9;&#9;&#9;&#9;c-7.4-2.5-12.6-7.8-17.9-13.1c-59.2-59.3-118.4-118.5-177.6-177.6c-4.7-4.7-8.2-10.1-10.4-16.4c-5.4-15.8-6-32-2.9-48.4&#10;&#9;&#9;&#9;&#9;c1.8-9.5,1.3-18-4.8-26.2c-5.4-7.3-8.8-15.8-10.8-24.8C271.6,256,272.1,252.4,270.5,249.2z" style="fill: rgb(64, 200, 232); fill-opacity: 0.18;"/>
		</g>
	</g>
	<g>
		<path class="st15" d="M408.7,246.1c0-23.9-15.5-41.2-36.9-41.2c-12.8,0-20.1,3.9-25.4,6.7c-6.4,3.4-7.3,3.4-13.8,0&#10;&#9;&#9;&#9;c-5.3-2.8-12.6-6.7-25.4-6.7c-21.4,0-36.9,17.3-36.9,41.2c0,17.8,7.3,29.7,12.7,38.4c2.6,4.3,5.1,8.4,5.1,10.8&#10;&#9;&#9;&#9;c0,7.8-0.7,11.8-1.4,16.1c-1,5.8-2,11.9-1,25.8c2.2,28,14.8,40.8,25.7,40.8l0,0c6.8,0,16.7-19,16.1-39.1&#10;&#9;&#9;&#9;c-0.1-4.1,1.1-7.8,3.6-10.3c2.2-2.2,5-3.4,8.3-3.4s6.2,1.2,8.3,3.4c2.4,2.5,3.7,6.2,3.6,10.3c-0.6,20.1,9.1,39.1,16.1,39.1&#10;&#9;&#9;&#9;c10.8,0,23.5-12.8,25.7-40.8c1.1-14,0-20-1-25.8c-0.7-4.3-1.4-8.3-1.4-16.1c0-2.5,2.5-6.5,5.2-10.8&#10;&#9;&#9;&#9;C401.4,275.9,408.7,263.9,408.7,246.1z" style="fill: rgb(255, 255, 255);"/>
	</g>
	<g>
		<path class="st15" d="M678.2,304.5c0,4.2-3.4,7.6-7.6,7.6H665c-4.2,0-7.6-3.4-7.6-7.6v-2.2c-7.5-0.6-14.5-1.4-21.1-2.3v14.4&#10;&#9;&#9;&#9;c0,16.7,13.6,19.6,30.3,19.6h2.4c16.7,0,30.3-2.9,30.3-19.6v-10.3c-7.3,0-14.3-0.2-21.1-0.5V304.5z" style="fill: rgb(255, 255, 255);"/>
		<path class="st15" d="M657.4,291.2c0-4.2,3.4-7.6,7.6-7.6h5.7c4.2,0,7.6,3.4,7.6,7.6v3.2c6.7,0.3,13.8,0.5,21.1,0.5v-15.5&#10;&#9;&#9;&#9;c0-16.7-13.6-30.3-30.3-30.3h-2.4c-16.7,0-30.3,10.7-30.3,27.4v14.1c6.4,0.9,13.4,1.7,21.1,2.3V291.2z" style="fill: rgb(255, 255, 255);"/>
		<path class="st15" d="M613,304.9h-5.7c-4.2,0-7.6-3.4-7.6-7.6v-3.8c-7.3-1.6-12.3-3-14.6-3.7v12.2c0,13.3,11.3,19.7,24,21.3&#10;&#9;&#9;&#9;c10,1.3,25.9-2.3,25.9-15.6v-7.9c-5.2-0.7-10.1-1.4-14.6-2.2C620.5,301.7,617.1,304.9,613,304.9z" style="fill: rgb(255, 255, 255);"/>
		<path class="st15" d="M586.6,280.7c0.1,0,4.8,1.5,13.2,3.4c0-4.2,3.4-7.5,7.6-7.5h5.7c4.2,0,7.6,3.4,7.6,7.6v4.1&#10;&#9;&#9;&#9;c4.3,0.7,9.2,1.5,14.6,2.2v-16.2c0-13.3-10.8-24-24-24h-1.9c-13.3,0-24,8.5-24,21.8v8.4C585.7,280.5,586.2,280.5,586.6,280.7z" style="fill: rgb(255, 255, 255);"/>
		<path class="st15" d="M742.6,304.5c0,4.2-3.4,7.6-7.6,7.6h-5.7c-4.2,0-7.6-3.4-7.6-7.6v-0.8c-6.7,0.3-13.8,0.5-21.1,0.5v10.3&#10;&#9;&#9;&#9;c0,16.7,13.6,19.6,30.3,19.6h2.4c16.7,0,30.3-2.9,30.3-19.6V300c-6.5,0.9-13.5,1.6-21.1,2.3V304.5z" style="fill: rgb(255, 255, 255);"/>
		<path class="st15" d="M721.8,291.2c0-4.2,3.4-7.6,7.6-7.6h5.7c4.2,0,7.6,3.4,7.6,7.6v1.8c7.6-0.7,14.7-1.5,21.1-2.3v-14.1&#10;&#9;&#9;&#9;c0-16.7-13.6-27.4-30.3-27.4H731c-16.7,0-30.3,13.6-30.3,30.3v15.5c7.3,0,14.3-0.2,21.1-0.5V291.2z" style="fill: rgb(255, 255, 255);"/>
		<path class="st15" d="M800.2,297.4c0,4.2-3.4,7.6-7.6,7.6H787c-4.1,0-7.4-3.2-7.6-7.3c-4.5,0.8-9.4,1.5-14.6,2.2v7.9&#10;&#9;&#9;&#9;c0,13.3,15.9,16.8,25.9,15.6c12.7-1.6,24-8,24-21.3v-12.2c-2.3,0.7-7.3,2-14.6,3.7V297.4z" style="fill: rgb(255, 255, 255);"/>
		<path class="st15" d="M779.4,284.1c0-4.2,3.4-7.6,7.6-7.6h5.7c4.2,0,7.5,3.4,7.6,7.5c8.4-1.9,13.1-3.4,13.2-3.4&#10;&#9;&#9;&#9;c0.5-0.1,0.9-0.2,1.4-0.2V272c0-13.3-10.8-21.8-24-21.8h-1.9c-13.3,0-24,10.8-24,24v16.2c5.4-0.7,10.2-1.5,14.6-2.2V284.1z" style="fill: rgb(255, 255, 255);"/>
	</g>
	<g>
		<g>
			<path class="st15" d="M321,776.9c0,2-1.6,3.6-3.6,3.6h-15.4c-2,0-3.6-1.6-3.6-3.6v-80.6c0-2,1.6-3.6,3.6-3.6h15.4&#10;&#9;&#9;&#9;&#9;c2,0,3.6,1.6,3.6,3.6V776.9z" style="fill: rgb(255, 255, 255);"/>
		</g>
		<g>
			<path class="st15" d="M319.3,689.2c0-0.7-0.6-1.3-1.3-1.3h-16.3c-0.7,0-1.3,0.6-1.3,1.3v1.8c0,0.7,0.6,1.3,1.3,1.3h16.3&#10;&#9;&#9;&#9;&#9;c0.7,0,1.3-0.6,1.3-1.3V689.2z" style="fill: rgb(255, 255, 255);"/>
		</g>
		<g>
			<path class="st15" d="M309.8,660.5c-17.7,0-32.1-14.4-32.1-32.1c0-17.7,14.4-32.1,32.1-32.1c17.7,0,32.1,14.4,32.1,32.1&#10;&#9;&#9;&#9;&#9;C341.8,646.1,327.4,660.5,309.8,660.5z M309.8,604.3c-13.3,0-24.2,10.8-24.2,24.2c0,13.3,10.8,24.2,24.2,24.2&#10;&#9;&#9;&#9;&#9;c13.3,0,24.2-10.8,24.2-24.2C334,615.1,323.1,604.3,309.8,604.3z" style="fill: rgb(255, 255, 255);"/>
		</g>
		<g>
			<path d="M 305.799988 656.599976 H 313.699988 V 701.899975 H 305.799988 V 656.599976 Z" class="st15" style="fill: rgb(255, 255, 255);"/>
		</g>
		<g>
			<g>
				<path class="st15" d="M358.2,600c0-2,1.6-3.6,3.6-3.6h15.4c2,0,3.6,1.6,3.6,3.6v80.6c0,2-1.6,3.6-3.6,3.6h-15.4&#10;&#9;&#9;&#9;&#9;&#9;c-2,0-3.6-1.6-3.6-3.6V600z" style="fill: rgb(255, 255, 255);"/>
			</g>
			<g>
				<path class="st15" d="M360,687.7c0,0.7,0.6,1.3,1.3,1.3h16.3c0.7,0,1.3-0.6,1.3-1.3v-1.8c0-0.7-0.6-1.3-1.3-1.3h-16.3&#10;&#9;&#9;&#9;&#9;&#9;c-0.7,0-1.3,0.6-1.3,1.3V687.7z" style="fill: rgb(255, 255, 255);"/>
			</g>
			<g>
				<path class="st15" d="M369.5,780.5c-8.6,0-16.6-3.3-22.7-9.4c-1.5-1.5-1.5-4,0-5.6c1.5-1.5,4-1.5,5.6,0&#10;&#9;&#9;&#9;&#9;&#9;c4.6,4.6,10.6,7.1,17.1,7.1c13.3,0,24.2-10.8,24.2-24.2c0-13.3-10.8-24.2-24.2-24.2c-2.2,0-3.9-1.8-3.9-3.9v-49.2&#10;&#9;&#9;&#9;&#9;&#9;c0-2.2,1.8-3.9,3.9-3.9c2.2,0,3.9,1.8,3.9,3.9v45.5c15.8,1.9,28.1,15.5,28.1,31.8C401.5,766.1,387.1,780.5,369.5,780.5z" style="fill: rgb(255, 255, 255);"/>
			</g>
		</g>
	</g>
	<g>
		<path class="st15" d="M785.7,713.5c0,1.2-0.9,2.1-2.1,2.1h-16.3l-27.1,25.1H618.6c-1.2,0-2.1-0.9-2.1-2.1v-20.9&#10;&#9;&#9;&#9;c0-1.2,0.9-2.1,2.1-2.1h113.9l32.1-25.1h19c1.2,0,2.1,0.9,2.1,2.1V713.5z" style="fill: rgb(255, 255, 255);"/>
		<path class="st15" d="M635,726.3c0,1.2-0.9,2.1-2.1,2.1h-6.3c-1.2,0-2.1-0.9-2.1-2.1v-49.5c0-1.2,0.9-2.1,2.1-2.1h6.3&#10;&#9;&#9;&#9;c1.2,0,2.1,0.9,2.1,2.1V726.3z" style="fill: rgb(255, 255, 255);"/>
		<path class="st15" d="M648.3,726.3c0,1.2-0.9,2.1-2.1,2.1h-6.3c-1.2,0-2.1-0.9-2.1-2.1v-49.5c0-1.2,0.9-2.1,2.1-2.1h6.3&#10;&#9;&#9;&#9;c1.2,0,2.1,0.9,2.1,2.1V726.3z" style="fill: rgb(255, 255, 255);"/>
		<path class="st15" d="M661.5,726.3c0,1.2-0.9,2.1-2.1,2.1h-6.3c-1.2,0-2.1-0.9-2.1-2.1v-49.5c0-1.2,0.9-2.1,2.1-2.1h6.3&#10;&#9;&#9;&#9;c1.2,0,2.1,0.9,2.1,2.1V726.3z" style="fill: rgb(255, 255, 255);"/>
		<path class="st15" d="M674.8,726.3c0,1.2-0.9,2.1-2.1,2.1h-6.3c-1.2,0-2.1-0.9-2.1-2.1v-49.5c0-1.2,0.9-2.1,2.1-2.1h6.3&#10;&#9;&#9;&#9;c1.2,0,2.1,0.9,2.1,2.1V726.3z" style="fill: rgb(255, 255, 255);"/>
		<path class="st15" d="M688,726.3c0,1.2-0.9,2.1-2.1,2.1h-6.3c-1.2,0-2.1-0.9-2.1-2.1v-49.5c0-1.2,0.9-2.1,2.1-2.1h6.3&#10;&#9;&#9;&#9;c1.2,0,2.1,0.9,2.1,2.1V726.3z" style="fill: rgb(255, 255, 255);"/>
		<path class="st15" d="M701.3,726.3c0,1.2-0.9,2.1-2.1,2.1h-6.3c-1.2,0-2.1-0.9-2.1-2.1v-49.5c0-1.2,0.9-2.1,2.1-2.1h6.3&#10;&#9;&#9;&#9;c1.2,0,2.1,0.9,2.1,2.1V726.3z" style="fill: rgb(255, 255, 255);"/>
		<path class="st15" d="M714.6,726.3c0,1.2-0.9,2.1-2.1,2.1h-6.3c-1.2,0-2.1-0.9-2.1-2.1v-49.5c0-1.2,0.9-2.1,2.1-2.1h6.3&#10;&#9;&#9;&#9;c1.2,0,2.1,0.9,2.1,2.1V726.3z" style="fill: rgb(255, 255, 255);"/>
		<path class="st15" d="M727.8,726.3c0,1.2-0.9,2.1-2.1,2.1h-6.3c-1.2,0-2.1-0.9-2.1-2.1v-49.5c0-1.2,0.9-2.1,2.1-2.1h6.3&#10;&#9;&#9;&#9;c1.2,0,2.1,0.9,2.1,2.1V726.3z" style="fill: rgb(255, 255, 255);"/>
		<path class="st15" d="M729.4,655.9c0-6.9-5.6-12.6-12.6-12.6h-84.1c-15,0-18.5-7.2-18.5-7.2c0,30,13.1,34.5,24.2,34.5h78.3&#10;&#9;&#9;&#9;c6.9,0,12.6-5.6,12.6-12.6V655.9z" style="fill: rgb(255, 255, 255);"/>
	</g>
	<g>
		<path class="st15" d="M1121.9,283.2c4-7.6,7.6-17.2,7.6-29.6c0-23.9-15.5-41.2-36.9-41.2c-12.8,0-20.1,3.9-25.4,6.7&#10;&#9;&#9;&#9;c-6.4,3.4-7.3,3.4-13.8,0c-5.3-2.8-12.6-6.7-25.4-6.7c-21.4,0-36.9,17.3-36.9,41.2c0,12.4,3.6,22,7.6,29.6H1121.9z" style="fill: rgb(255, 255, 255);"/>
		<g>
			<path d="M 1109.0999755859375 298.29998779296875 L 1111.699951171875 288.3999938964844 L 1009.7999877929688 288.3999938964844 L 1012.2999877929688 298.29998779296875 L 1008.2999877929688 298.29998779296875 L 1008.2999877929688 305.5 L 1113.199951171875 305.5 L 1113.199951171875 298.29998779296875 Z" class="st15" style="fill: rgb(255, 255, 255);"/>
			<path d="M 1106.0999755859375 309.20001220703125 L 1015.0999755859375 309.20001220703125 L 1017.9000244140625 320.1000061035156 L 1014 320.1000061035156 L 1014 327.3999938964844 L 1107.5 327.3999938964844 L 1107.5 320.1000061035156 L 1103.199951171875 320.1000061035156 Z" class="st15" style="fill: rgb(255, 255, 255);"/>
			<path class="st15" d="M1097.8,340.2l2.5-9.2h-79.6l2.3,9.2c0,0.6,0,1.2,0,1.8h-3v7.2h81.2V342h-3.6&#10;&#9;&#9;&#9;&#9;C1097.8,341.4,1097.8,340.8,1097.8,340.2z" style="fill: rgb(255, 255, 255);"/>
			<path class="st15" d="M1060.4,370.7c11,0,20.3-7,23.8-16.8h-47.7C1040.1,363.7,1049.4,370.7,1060.4,370.7z" style="fill: rgb(255, 255, 255);"/>
		</g>
	</g>
	<g>
		<g>
			<path class="st15" d="M1084.6,769.5c-2.4,0-4.3-1.9-4.3-4.3V626.9H1047c-2.4,0-4.3-1.9-4.3-4.3c0-2.4,1.9-4.3,4.3-4.3h37.5&#10;&#9;&#9;&#9;&#9;c2.4,0,4.3,1.9,4.3,4.3v142.6C1088.9,767.5,1087,769.5,1084.6,769.5z" style="fill: rgb(255, 255, 255);"/>
		</g>
		<g>
			<path class="st15" d="M1049.7,646c4.3-4.1,7.1-9.8,7.1-16.3c0-12.4-10-22.4-22.4-22.4c-5.5,0-10.5,2.1-14.4,5.3L1049.7,646z" style="fill: rgb(255, 255, 255);"/>
		</g>
		<g>
			<g>
				<path class="st15" d="M996.2,661.5c9.5,0,17.2-7.7,17.2-17.2c0-9.5-7.7-17.2-17.2-17.2c-9.5,0-17.2,7.7-17.2,17.2&#10;&#9;&#9;&#9;&#9;&#9;C979.1,653.8,986.8,661.5,996.2,661.5z" style="fill: rgb(255, 255, 255);"/>
			</g>
			<g>
				<path class="st15" d="M1007,661.2c-3,3.2-2.9,8.2,0.3,11.2l24.9,23.7c1.5,1.4,3.4,2.2,5.5,2.2h50.8l57.7,33c1.2,0.7,2.6,1,3.9,1&#10;&#9;&#9;&#9;&#9;&#9;c2.8,0,5.4-1.4,6.9-4c2.2-3.8,0.9-8.7-2.9-10.8l-59.5-34.1c-1.2-0.7-2.6-1-3.9-1h-49.7l-22.6-21.5&#10;&#9;&#9;&#9;&#9;&#9;C1015,657.9,1010,658,1007,661.2z" style="fill: rgb(255, 255, 255);"/>
			</g>
			<g>
				<path class="st15" d="M1154.1,746.4l-70.6-42.6c-1.4-0.8-2.9-1.2-4.5-1.1l0-0.1h-51.7l-51-49.9c-3.1-3.1-8.2-3-11.2,0.1&#10;&#9;&#9;&#9;&#9;&#9;c-3.1,3.1-3,8.2,0.1,11.2l73.7,72.1c2.5,2.5,6.4,3,9.5,1.2l30.8-17.5l66.6,40.2c1.3,0.8,2.7,1.1,4.1,1.1c2.7,0,5.3-1.4,6.8-3.8&#10;&#9;&#9;&#9;&#9;&#9;C1159,753.6,1157.8,748.7,1154.1,746.4z" style="fill: rgb(255, 255, 255);"/>
			</g>
		</g>
		<path class="st15" d="M1100.8,766.6c0,1.6-1.3,2.8-2.8,2.8h-26.5c-1.6,0-2.8-1.3-2.8-2.8l0,0c0-1.6,1.3-2.8,2.8-2.8h26.5&#10;&#9;&#9;&#9;C1099.6,763.8,1100.8,765.1,1100.8,766.6L1100.8,766.6z" style="fill: rgb(255, 255, 255);"/>
	</g>
	<g>
		<path class="st15" d="M408.7,246.1c0-23.9-15.5-41.2-36.9-41.2c-12.8,0-20.1,3.9-25.4,6.7c-6.4,3.4-7.3,3.4-13.8,0&#10;&#9;&#9;&#9;c-5.3-2.8-12.6-6.7-25.4-6.7c-21.4,0-36.9,17.3-36.9,41.2c0,17.8,7.3,29.7,12.7,38.4c2.6,4.3,5.1,8.4,5.1,10.8&#10;&#9;&#9;&#9;c0,7.8-0.7,11.8-1.4,16.1c-1,5.8-2,11.9-1,25.8c2.2,28,14.8,40.8,25.7,40.8l0,0c6.8,0,16.7-19,16.1-39.1&#10;&#9;&#9;&#9;c-0.1-4.1,1.1-7.8,3.6-10.3c2.2-2.2,5-3.4,8.3-3.4s6.2,1.2,8.3,3.4c2.4,2.5,3.7,6.2,3.6,10.3c-0.6,20.1,9.1,39.1,16.1,39.1&#10;&#9;&#9;&#9;c10.8,0,23.5-12.8,25.7-40.8c1.1-14,0-20-1-25.8c-0.7-4.3-1.4-8.3-1.4-16.1c0-2.5,2.5-6.5,5.2-10.8&#10;&#9;&#9;&#9;C401.4,275.9,408.7,263.9,408.7,246.1z" style="fill: rgb(255, 255, 255);"/>
	</g>
	<g>
		<path class="st15" d="M678.2,304.5c0,4.2-3.4,7.6-7.6,7.6H665c-4.2,0-7.6-3.4-7.6-7.6v-2.2c-7.5-0.6-14.5-1.4-21.1-2.3v14.4&#10;&#9;&#9;&#9;c0,16.7,13.6,19.6,30.3,19.6h2.4c16.7,0,30.3-2.9,30.3-19.6v-10.3c-7.3,0-14.3-0.2-21.1-0.5V304.5z" style="fill: rgb(255, 255, 255);"/>
		<path class="st15" d="M657.4,291.2c0-4.2,3.4-7.6,7.6-7.6h5.7c4.2,0,7.6,3.4,7.6,7.6v3.2c6.7,0.3,13.8,0.5,21.1,0.5v-15.5&#10;&#9;&#9;&#9;c0-16.7-13.6-30.3-30.3-30.3h-2.4c-16.7,0-30.3,10.7-30.3,27.4v14.1c6.4,0.9,13.4,1.7,21.1,2.3V291.2z" style="fill: rgb(255, 255, 255);"/>
		<path class="st15" d="M613,304.9h-5.7c-4.2,0-7.6-3.4-7.6-7.6v-3.8c-7.3-1.6-12.3-3-14.6-3.7v12.2c0,13.3,11.3,19.7,24,21.3&#10;&#9;&#9;&#9;c10,1.3,25.9-2.3,25.9-15.6v-7.9c-5.2-0.7-10.1-1.4-14.6-2.2C620.5,301.7,617.1,304.9,613,304.9z" style="fill: rgb(255, 255, 255);"/>
		<path class="st15" d="M586.6,280.7c0.1,0,4.8,1.5,13.2,3.4c0-4.2,3.4-7.5,7.6-7.5h5.7c4.2,0,7.6,3.4,7.6,7.6v4.1&#10;&#9;&#9;&#9;c4.3,0.7,9.2,1.5,14.6,2.2v-16.2c0-13.3-10.8-24-24-24h-1.9c-13.3,0-24,8.5-24,21.8v8.4C585.7,280.5,586.2,280.5,586.6,280.7z" style="fill: rgb(255, 255, 255);"/>
		<path class="st15" d="M742.6,304.5c0,4.2-3.4,7.6-7.6,7.6h-5.7c-4.2,0-7.6-3.4-7.6-7.6v-0.8c-6.7,0.3-13.8,0.5-21.1,0.5v10.3&#10;&#9;&#9;&#9;c0,16.7,13.6,19.6,30.3,19.6h2.4c16.7,0,30.3-2.9,30.3-19.6V300c-6.5,0.9-13.5,1.6-21.1,2.3V304.5z" style="fill: rgb(255, 255, 255);"/>
		<path class="st15" d="M721.8,291.2c0-4.2,3.4-7.6,7.6-7.6h5.7c4.2,0,7.6,3.4,7.6,7.6v1.8c7.6-0.7,14.7-1.5,21.1-2.3v-14.1&#10;&#9;&#9;&#9;c0-16.7-13.6-27.4-30.3-27.4H731c-16.7,0-30.3,13.6-30.3,30.3v15.5c7.3,0,14.3-0.2,21.1-0.5V291.2z" style="fill: rgb(255, 255, 255);"/>
		<path class="st15" d="M800.2,297.4c0,4.2-3.4,7.6-7.6,7.6H787c-4.1,0-7.4-3.2-7.6-7.3c-4.5,0.8-9.4,1.5-14.6,2.2v7.9&#10;&#9;&#9;&#9;c0,13.3,15.9,16.8,25.9,15.6c12.7-1.6,24-8,24-21.3v-12.2c-2.3,0.7-7.3,2-14.6,3.7V297.4z" style="fill: rgb(255, 255, 255);"/>
		<path class="st15" d="M779.4,284.1c0-4.2,3.4-7.6,7.6-7.6h5.7c4.2,0,7.5,3.4,7.6,7.5c8.4-1.9,13.1-3.4,13.2-3.4&#10;&#9;&#9;&#9;c0.5-0.1,0.9-0.2,1.4-0.2V272c0-13.3-10.8-21.8-24-21.8h-1.9c-13.3,0-24,10.8-24,24v16.2c5.4-0.7,10.2-1.5,14.6-2.2V284.1z" style="fill: rgb(255, 255, 255);"/>
	</g>
	<g>
		<g>
			<path class="st15" d="M321,776.9c0,2-1.6,3.6-3.6,3.6h-15.4c-2,0-3.6-1.6-3.6-3.6v-80.6c0-2,1.6-3.6,3.6-3.6h15.4&#10;&#9;&#9;&#9;&#9;c2,0,3.6,1.6,3.6,3.6V776.9z" style="fill: rgb(255, 255, 255);"/>
		</g>
		<g>
			<path class="st15" d="M319.3,689.2c0-0.7-0.6-1.3-1.3-1.3h-16.3c-0.7,0-1.3,0.6-1.3,1.3v1.8c0,0.7,0.6,1.3,1.3,1.3h16.3&#10;&#9;&#9;&#9;&#9;c0.7,0,1.3-0.6,1.3-1.3V689.2z" style="fill: rgb(255, 255, 255);"/>
		</g>
		<g>
			<path class="st15" d="M309.8,660.5c-17.7,0-32.1-14.4-32.1-32.1c0-17.7,14.4-32.1,32.1-32.1c17.7,0,32.1,14.4,32.1,32.1&#10;&#9;&#9;&#9;&#9;C341.8,646.1,327.4,660.5,309.8,660.5z M309.8,604.3c-13.3,0-24.2,10.8-24.2,24.2c0,13.3,10.8,24.2,24.2,24.2&#10;&#9;&#9;&#9;&#9;c13.3,0,24.2-10.8,24.2-24.2C334,615.1,323.1,604.3,309.8,604.3z" style="fill: rgb(255, 255, 255);"/>
		</g>
		<g>
			<path d="M 305.799988 656.599976 H 313.699988 V 701.899975 H 305.799988 V 656.599976 Z" class="st15" style="fill: rgb(255, 255, 255);"/>
		</g>
		<g>
			<g>
				<path class="st15" d="M358.2,600c0-2,1.6-3.6,3.6-3.6h15.4c2,0,3.6,1.6,3.6,3.6v80.6c0,2-1.6,3.6-3.6,3.6h-15.4&#10;&#9;&#9;&#9;&#9;&#9;c-2,0-3.6-1.6-3.6-3.6V600z" style="fill: rgb(255, 255, 255);"/>
			</g>
			<g>
				<path class="st15" d="M360,687.7c0,0.7,0.6,1.3,1.3,1.3h16.3c0.7,0,1.3-0.6,1.3-1.3v-1.8c0-0.7-0.6-1.3-1.3-1.3h-16.3&#10;&#9;&#9;&#9;&#9;&#9;c-0.7,0-1.3,0.6-1.3,1.3V687.7z" style="fill: rgb(255, 255, 255);"/>
			</g>
			<g>
				<path class="st15" d="M369.5,780.5c-8.6,0-16.6-3.3-22.7-9.4c-1.5-1.5-1.5-4,0-5.6c1.5-1.5,4-1.5,5.6,0&#10;&#9;&#9;&#9;&#9;&#9;c4.6,4.6,10.6,7.1,17.1,7.1c13.3,0,24.2-10.8,24.2-24.2c0-13.3-10.8-24.2-24.2-24.2c-2.2,0-3.9-1.8-3.9-3.9v-49.2&#10;&#9;&#9;&#9;&#9;&#9;c0-2.2,1.8-3.9,3.9-3.9c2.2,0,3.9,1.8,3.9,3.9v45.5c15.8,1.9,28.1,15.5,28.1,31.8C401.5,766.1,387.1,780.5,369.5,780.5z" style="fill: rgb(255, 255, 255);"/>
			</g>
		</g>
	</g>
	<g>
		<path class="st15" d="M785.7,713.5c0,1.2-0.9,2.1-2.1,2.1h-16.3l-27.1,25.1H618.6c-1.2,0-2.1-0.9-2.1-2.1v-20.9&#10;&#9;&#9;&#9;c0-1.2,0.9-2.1,2.1-2.1h113.9l32.1-25.1h19c1.2,0,2.1,0.9,2.1,2.1V713.5z" style="fill: rgb(255, 255, 255);"/>
		<path class="st15" d="M635,726.3c0,1.2-0.9,2.1-2.1,2.1h-6.3c-1.2,0-2.1-0.9-2.1-2.1v-49.5c0-1.2,0.9-2.1,2.1-2.1h6.3&#10;&#9;&#9;&#9;c1.2,0,2.1,0.9,2.1,2.1V726.3z" style="fill: rgb(255, 255, 255);"/>
		<path class="st15" d="M648.3,726.3c0,1.2-0.9,2.1-2.1,2.1h-6.3c-1.2,0-2.1-0.9-2.1-2.1v-49.5c0-1.2,0.9-2.1,2.1-2.1h6.3&#10;&#9;&#9;&#9;c1.2,0,2.1,0.9,2.1,2.1V726.3z" style="fill: rgb(255, 255, 255);"/>
		<path class="st15" d="M661.5,726.3c0,1.2-0.9,2.1-2.1,2.1h-6.3c-1.2,0-2.1-0.9-2.1-2.1v-49.5c0-1.2,0.9-2.1,2.1-2.1h6.3&#10;&#9;&#9;&#9;c1.2,0,2.1,0.9,2.1,2.1V726.3z" style="fill: rgb(255, 255, 255);"/>
		<path class="st15" d="M674.8,726.3c0,1.2-0.9,2.1-2.1,2.1h-6.3c-1.2,0-2.1-0.9-2.1-2.1v-49.5c0-1.2,0.9-2.1,2.1-2.1h6.3&#10;&#9;&#9;&#9;c1.2,0,2.1,0.9,2.1,2.1V726.3z" style="fill: rgb(255, 255, 255);"/>
		<path class="st15" d="M688,726.3c0,1.2-0.9,2.1-2.1,2.1h-6.3c-1.2,0-2.1-0.9-2.1-2.1v-49.5c0-1.2,0.9-2.1,2.1-2.1h6.3&#10;&#9;&#9;&#9;c1.2,0,2.1,0.9,2.1,2.1V726.3z" style="fill: rgb(255, 255, 255);"/>
		<path class="st15" d="M701.3,726.3c0,1.2-0.9,2.1-2.1,2.1h-6.3c-1.2,0-2.1-0.9-2.1-2.1v-49.5c0-1.2,0.9-2.1,2.1-2.1h6.3&#10;&#9;&#9;&#9;c1.2,0,2.1,0.9,2.1,2.1V726.3z" style="fill: rgb(255, 255, 255);"/>
		<path class="st15" d="M714.6,726.3c0,1.2-0.9,2.1-2.1,2.1h-6.3c-1.2,0-2.1-0.9-2.1-2.1v-49.5c0-1.2,0.9-2.1,2.1-2.1h6.3&#10;&#9;&#9;&#9;c1.2,0,2.1,0.9,2.1,2.1V726.3z" style="fill: rgb(255, 255, 255);"/>
		<path class="st15" d="M727.8,726.3c0,1.2-0.9,2.1-2.1,2.1h-6.3c-1.2,0-2.1-0.9-2.1-2.1v-49.5c0-1.2,0.9-2.1,2.1-2.1h6.3&#10;&#9;&#9;&#9;c1.2,0,2.1,0.9,2.1,2.1V726.3z" style="fill: rgb(255, 255, 255);"/>
		<path class="st15" d="M729.4,655.9c0-6.9-5.6-12.6-12.6-12.6h-84.1c-15,0-18.5-7.2-18.5-7.2c0,30,13.1,34.5,24.2,34.5h78.3&#10;&#9;&#9;&#9;c6.9,0,12.6-5.6,12.6-12.6V655.9z" style="fill: rgb(255, 255, 255);"/>
	</g>
	<g>
		<path class="st15" d="M1121.9,283.2c4-7.6,7.6-17.2,7.6-29.6c0-23.9-15.5-41.2-36.9-41.2c-12.8,0-20.1,3.9-25.4,6.7&#10;&#9;&#9;&#9;c-6.4,3.4-7.3,3.4-13.8,0c-5.3-2.8-12.6-6.7-25.4-6.7c-21.4,0-36.9,17.3-36.9,41.2c0,12.4,3.6,22,7.6,29.6H1121.9z" style="fill: rgb(255, 255, 255);"/>
		<g>
			<path d="M 1109.0999755859375 298.29998779296875 L 1111.699951171875 288.3999938964844 L 1009.7999877929688 288.3999938964844 L 1012.2999877929688 298.29998779296875 L 1008.2999877929688 298.29998779296875 L 1008.2999877929688 305.5 L 1113.199951171875 305.5 L 1113.199951171875 298.29998779296875 Z" class="st15" style="fill: rgb(255, 255, 255);"/>
			<path d="M 1106.0999755859375 309.20001220703125 L 1015.0999755859375 309.20001220703125 L 1017.9000244140625 320.1000061035156 L 1014 320.1000061035156 L 1014 327.3999938964844 L 1107.5 327.3999938964844 L 1107.5 320.1000061035156 L 1103.199951171875 320.1000061035156 Z" class="st15" style="fill: rgb(255, 255, 255);"/>
			<path class="st15" d="M1097.8,340.2l2.5-9.2h-79.6l2.3,9.2c0,0.6,0,1.2,0,1.8h-3v7.2h81.2V342h-3.6&#10;&#9;&#9;&#9;&#9;C1097.8,341.4,1097.8,340.8,1097.8,340.2z" style="fill: rgb(255, 255, 255);"/>
			<path class="st15" d="M1060.4,370.7c11,0,20.3-7,23.8-16.8h-47.7C1040.1,363.7,1049.4,370.7,1060.4,370.7z" style="fill: rgb(255, 255, 255);"/>
		</g>
	</g>
	<g>
		<g>
			<path class="st15" d="M1084.6,769.5c-2.4,0-4.3-1.9-4.3-4.3V626.9H1047c-2.4,0-4.3-1.9-4.3-4.3c0-2.4,1.9-4.3,4.3-4.3h37.5&#10;&#9;&#9;&#9;&#9;c2.4,0,4.3,1.9,4.3,4.3v142.6C1088.9,767.5,1087,769.5,1084.6,769.5z" style="fill: rgb(255, 255, 255);"/>
		</g>
		<g>
			<path class="st15" d="M1049.7,646c4.3-4.1,7.1-9.8,7.1-16.3c0-12.4-10-22.4-22.4-22.4c-5.5,0-10.5,2.1-14.4,5.3L1049.7,646z" style="fill: rgb(255, 255, 255);"/>
		</g>
		<g>
			<g>
				<path class="st15" d="M996.2,661.5c9.5,0,17.2-7.7,17.2-17.2c0-9.5-7.7-17.2-17.2-17.2c-9.5,0-17.2,7.7-17.2,17.2&#10;&#9;&#9;&#9;&#9;&#9;C979.1,653.8,986.8,661.5,996.2,661.5z" style="fill: rgb(255, 255, 255);"/>
			</g>
			<g>
				<path class="st15" d="M1007,661.2c-3,3.2-2.9,8.2,0.3,11.2l24.9,23.7c1.5,1.4,3.4,2.2,5.5,2.2h50.8l57.7,33c1.2,0.7,2.6,1,3.9,1&#10;&#9;&#9;&#9;&#9;&#9;c2.8,0,5.4-1.4,6.9-4c2.2-3.8,0.9-8.7-2.9-10.8l-59.5-34.1c-1.2-0.7-2.6-1-3.9-1h-49.7l-22.6-21.5&#10;&#9;&#9;&#9;&#9;&#9;C1015,657.9,1010,658,1007,661.2z" style="fill: rgb(255, 255, 255);"/>
			</g>
			<g>
				<path class="st15" d="M1154.1,746.4l-70.6-42.6c-1.4-0.8-2.9-1.2-4.5-1.1l0-0.1h-51.7l-51-49.9c-3.1-3.1-8.2-3-11.2,0.1&#10;&#9;&#9;&#9;&#9;&#9;c-3.1,3.1-3,8.2,0.1,11.2l73.7,72.1c2.5,2.5,6.4,3,9.5,1.2l30.8-17.5l66.6,40.2c1.3,0.8,2.7,1.1,4.1,1.1c2.7,0,5.3-1.4,6.8-3.8&#10;&#9;&#9;&#9;&#9;&#9;C1159,753.6,1157.8,748.7,1154.1,746.4z" style="fill: rgb(255, 255, 255);"/>
			</g>
		</g>
		<path class="st15" d="M1100.8,766.6c0,1.6-1.3,2.8-2.8,2.8h-26.5c-1.6,0-2.8-1.3-2.8-2.8l0,0c0-1.6,1.3-2.8,2.8-2.8h26.5&#10;&#9;&#9;&#9;C1099.6,763.8,1100.8,765.1,1100.8,766.6L1100.8,766.6z" style="fill: rgb(255, 255, 255);"/>
	</g>
<path d="M 658.5758056640625 193.388671875 L 749.2659301757812 260.6060791015625" style="fill: rgb(229, 126, 72); fill-opacity: 1; stroke: rgb(0, 0, 0); stroke-opacity: 1; stroke-width: 0; paint-order: fill;"/><path d="M 230.73171997070312 629.768310546875" style="fill: rgb(229, 126, 72); fill-opacity: 1; stroke: rgb(0, 0, 0); stroke-opacity: 1; stroke-width: 0; paint-order: fill;"/><path d="M 1002.1314086914062 584.9567260742188" style="fill: rgb(229, 126, 72); fill-opacity: 1; stroke: rgb(0, 0, 0); stroke-opacity: 1; stroke-width: 0; paint-order: fill;"/></g>
</svg>