<svg xmlns="http://www.w3.org/2000/svg" width="60" height="56.602" viewBox="0 0 60 56.602">
  <path id="Icon_map-doctor" data-name="Icon map-doctor" d="M53.125,15.172H46.97V8.878A8.23,8.23,0,0,0,38.6.72H22.839A8.229,8.229,0,0,0,14.47,8.878v6.294H8.314A7.329,7.329,0,0,0,.72,22.321V50.029a7.447,7.447,0,0,0,7.594,7.293H53.125a7.449,7.449,0,0,0,7.6-7.294V22.321A7.331,7.331,0,0,0,53.125,15.172ZM19.47,8.878a3.542,3.542,0,0,1,3.369-3.341H38.6A3.544,3.544,0,0,1,41.97,8.878v6.294H19.47Zm25,32.788H35.72V50.1h-10v-8.43H16.97V32.032h8.75V23.6h10v8.43h8.75Z" transform="translate(-0.72 -0.72)" fill="#e57e48"/>
</svg>
