<?xml version="1.0" encoding="UTF-8"?>
<svg width="1200pt" height="1200pt" version="1.1" viewBox="0 0 1200 1200" xmlns="http://www.w3.org/2000/svg">
 <g fill="#e57e48">
  <path d="m702.65 419.03c-37.621-6.9727-75.082 3.7305-102.49 28.539-27.566-24.812-65.188-35.512-102.65-28.539-50.109 9.2422-89.836 50.918-96.488 101.51-5.1875 39.566 9.082 78.973 38.434 105.57 11.512 10.379 18.164 24.812 18.164 39.566v36c0 78.488 49.945 147.41 80.109 147.41 30.324 0 35.676-47.512 35.676-147.41v-26.27c0-14.594 12-26.594 26.594-26.594s26.594 12 26.594 26.594v26.27c0 99.891 5.3516 147.41 35.676 147.41 30.164 0 80.109-68.918 80.109-147.41v-36c0-14.758 6.6484-29.188 18-39.566 29.512-26.594 43.785-66.164 38.434-105.89-6.6484-50.43-46.219-92.105-96.164-101.19zm41.516 189.08c-16.539 14.918-26.109 36-26.109 57.566v36c0 71.676-45.082 122.43-54.812 123.41-8.2695-5.8359-12.324-47.352-12.324-123.41v-26.27c0-28.055-22.863-50.918-50.918-50.918s-50.918 22.863-50.918 50.918v26.27c0 76.055-4.2148 117.57-11.352 123.08-10.863-0.64844-55.785-51.406-55.785-123.08v-36c0-21.566-9.5664-42.648-26.109-57.73-23.676-21.406-34.863-52.055-30.648-84.324 5.3516-40.215 36.812-73.461 76.703-80.758 33.566-6.1641 66.973 5.0273 89.188 30 0.16406 0.16406 0.32422 0.16406 0.32422 0.32422 15.73 17.512 24.488 40.215 24.488 63.73 0 6.6484 5.5117 12.164 12.164 12.164 6.6484 0 12.164-5.5117 12.164-12.164 0-25.945-8.2695-50.758-23.676-71.352 21.891-19.621 51.566-28.215 81.566-22.539 39.73 7.2969 71.188 40.379 76.703 80.594 4.375 32.109-6.8125 62.918-30.648 84.488z"/>
  <path d="m942.81 358.7h-10.055v-215.35c0-33.566-27.242-60.812-60.812-60.812h-543.89c-33.566 0-60.812 27.242-60.812 60.812v145.62h-10.055c-20.109 0-36.488 16.379-36.488 36.488v38.594c0 20.109 16.379 36.488 36.488 36.488h10.055v28.055h-10.055c-20.109 0-36.488 16.379-36.488 36.488v38.594c0 20.109 16.379 36.488 36.488 36.488h10.055v516.49c0 33.566 27.242 60.812 60.812 60.812h543.89c33.566 0 60.812-27.242 60.812-60.812v-586.39h10.055c20.109 0 36.488-16.379 36.488-36.488v-38.594c-0.003906-20.105-16.383-36.484-36.488-36.484zm-685.62 17.512c-6.6484 0-12.164-5.5117-12.164-12.164v-38.594c0-6.6484 5.5117-12.164 12.164-12.164h10.055v62.918zm0 139.62c-6.6484 0-12.164-5.5117-12.164-12.164v-38.594c0-6.6484 5.5117-12.164 12.164-12.164h10.055v62.918zm651.25 540.81c0 20.109-16.379 36.488-36.488 36.488h-543.89c-20.109 0-36.488-16.379-36.488-36.488v-913.3c0-20.109 16.379-36.488 36.488-36.488h543.89c20.109 0 36.488 16.379 36.488 36.488zm46.539-622.86c0 6.6484-5.5117 12.164-12.164 12.164h-10.055v-62.918h10.055c6.6484 0 12.164 5.5117 12.164 12.164z"/>
  <path d="m847.62 171.08h-137.68c-12 0-22.863 6-29.188 16.215-1.9453 2.918-5.0273 4.7031-8.5938 4.7031h-144.32c-3.5664 0-6.8125-1.7852-8.5938-4.7031-6.3242-10.055-17.188-16.215-29.188-16.215h-137.68c-15.566 0-28.379 12.812-28.379 28.379v818.43c0 15.566 12.812 28.379 28.379 28.379h495.24c15.566 0 28.379-12.812 28.379-28.379l-0.003906-818.43c0-15.57-12.812-28.379-28.379-28.379zm4.0547 846.81c0 2.2695-1.7852 4.0547-4.0547 4.0547h-495.24c-2.2695 0-4.0547-1.7852-4.0547-4.0547v-818.43c0-2.2695 1.7852-4.0547 4.0547-4.0547h137.68c3.5664 0 6.8125 1.7852 8.5938 4.7031 6.3242 10.055 17.188 16.215 29.188 16.215h144.32c12 0 22.863-6 29.188-16.215 1.9453-2.918 5.0273-4.7031 8.5938-4.7031h137.68c2.2695 0 4.0547 1.7852 4.0547 4.0547z"/>
  <path d="m588.65 161.68h79.461c6.6484 0 12.164-5.5117 12.164-12.164 0-6.6484-5.5117-12.164-12.164-12.164h-79.461c-6.6484 0-12.164 5.5117-12.164 12.164 0.003906 6.6523 5.5156 12.164 12.164 12.164z"/>
  <path d="m531.89 161.68h4.3789c6.6484 0 12.164-5.5117 12.164-12.164 0-6.6484-5.5117-12.164-12.164-12.164l-4.3789 0.003906c-6.6484 0-12.164 5.5117-12.164 12.164 0.003907 6.6484 5.3555 12.16 12.164 12.16z"/>
 </g>
</svg>
