<svg xmlns="http://www.w3.org/2000/svg" width="60" height="50.882" viewBox="0 0 60 50.882">
  <path id="Icon_awesome-x-ray" data-name="Icon awesome-x-ray" d="M22.5,38.162a1.593,1.593,0,1,0,1.5,1.59A1.552,1.552,0,0,0,22.5,38.162Zm15,3.18a1.593,1.593,0,1,0-1.5-1.59A1.552,1.552,0,0,0,37.5,41.342ZM58.5,0H1.5A1.552,1.552,0,0,0,0,1.59V4.77A1.552,1.552,0,0,0,1.5,6.36h57A1.552,1.552,0,0,0,60,4.77V1.59A1.552,1.552,0,0,0,58.5,0Zm0,44.522H54V9.54H6V44.522H1.5A1.552,1.552,0,0,0,0,46.112v3.18a1.552,1.552,0,0,0,1.5,1.59h57a1.552,1.552,0,0,0,1.5-1.59v-3.18A1.552,1.552,0,0,0,58.5,44.522ZM45,24.646a.776.776,0,0,1-.75.8H31.5v3.18h9.75a.776.776,0,0,1,.75.8v1.59a.776.776,0,0,1-.75.8H31.5v3.18h6a4.778,4.778,0,1,1-4.5,4.77v-1.59H27v1.59a4.642,4.642,0,0,1-4.5,4.77,4.778,4.778,0,0,1,0-9.54h6V31.8H18.75a.776.776,0,0,1-.75-.8v-1.59a.776.776,0,0,1,.75-.8H28.5v-3.18H15.75a.776.776,0,0,1-.75-.8v-1.59a.776.776,0,0,1,.75-.8H28.5v-3.18H18.75a.776.776,0,0,1-.75-.8V16.7a.776.776,0,0,1,.75-.8H28.5V13.516a.776.776,0,0,1,.75-.8h1.5a.776.776,0,0,1,.75.8V15.9h9.75a.776.776,0,0,1,.75.8v1.59a.776.776,0,0,1-.75.8H31.5v3.18H44.25a.776.776,0,0,1,.75.8Z" fill="#e57e48"/>
</svg>
